<svg width="91" height="146" viewBox="0 0 91 146" fill="none" xmlns="http://www.w3.org/2000/svg">
<g clip-path="url(#clip0)">
<path d="M58.9062 106.288C58.9309 105.472 58.6895 104.67 58.2185 104.002C57.7474 103.335 57.0721 102.838 56.294 102.587C53.6031 101.726 50.3685 99.1003 50.1536 91.4839C49.9575 84.7167 51.6972 82.4396 53.3882 81.8C54.9439 81.2134 55.8514 79.5989 55.723 77.9435C55.5295 75.4526 55.6588 72.1288 56.9841 68.9136C59.1245 63.7223 55.0637 48.7435 34.9171 48.1262C34.8015 48.1262 34.6825 48.1262 34.5678 48.1262C14.4306 49.0206 10.5778 64.0532 12.7885 69.2146C14.1584 72.4118 14.3296 75.733 14.1738 78.2265C14.0685 79.8837 14.9974 81.4844 16.5616 82.0505C18.2611 82.6653 20.0317 84.9176 19.9341 91.6866C19.8236 99.3064 16.625 101.976 13.9469 102.874C13.1724 103.136 12.5042 103.643 12.0428 104.318C11.5815 104.992 11.3519 105.798 11.3886 106.614C11.6712 112.726 5.87573 121.824 8.94426 132.643C12.6421 145.68 35.4154 145.412 35.4154 145.412C35.4154 145.412 58.1896 145.367 61.7085 132.281C64.6246 121.42 58.7033 112.404 58.9062 106.288Z" fill="#F36D21"/>
<path d="M48.9616 77.3125C48.0854 77.3133 47.211 77.2311 46.3503 77.0671C42.3263 76.2898 39.2338 73.226 38.0831 68.8727C36.7988 64.0174 38.2192 58.809 41.6157 55.9102C44.0215 53.858 47.0224 52.7267 50.0669 52.7267C53.3058 52.7267 56.3744 54.0008 58.7066 56.3181C60.9994 58.5927 62.3667 61.0647 62.7708 63.666C63.2571 66.7999 62.3753 69.7833 60.222 72.2939C57.5644 75.3868 53.2493 77.3125 48.9616 77.3125Z" fill="white"/>
<path d="M50.0671 53.4526C53.0004 53.4526 55.9079 54.5642 58.1948 56.8302C60.5004 59.1185 61.6982 61.4948 62.0475 63.7745C63.1871 71.1112 56.0261 76.5839 48.9618 76.5839C48.133 76.586 47.3059 76.5089 46.4917 76.3538C37.5824 74.6334 35.7801 61.8479 42.0901 56.4625C44.4241 54.471 47.258 53.4526 50.0697 53.4526H50.0671ZM50.0697 51.9989C46.8522 51.9989 43.6826 53.1909 41.1458 55.356C39.2973 56.9337 37.9779 59.1236 37.3315 61.6898C36.7352 64.1111 36.7525 66.6427 37.382 69.0556C37.9505 71.207 38.9968 73.1276 40.4069 74.6137C41.9631 76.2503 43.9949 77.3571 46.2152 77.7776C47.1213 77.9505 48.0419 78.0364 48.9644 78.0341C53.4584 78.0341 57.985 76.0127 60.7795 72.759C61.8404 71.5403 62.6407 70.118 63.1314 68.5793C63.6394 66.9526 63.7636 65.2305 63.4945 63.5479C63.0664 60.7902 61.6297 58.1821 59.2247 55.7956C56.7555 53.3457 53.5046 51.9964 50.0722 51.9964L50.0697 51.9989Z" fill="#C55027"/>
<path d="M45.6143 74.488C39.7443 72.1091 40.4507 64.066 46.6879 62.6705C52.235 61.4298 56.9217 67.7789 53.122 72.2305C51.2153 74.4641 48.5467 75.6766 45.6143 74.488Z" fill="#010101"/>
<path d="M45.2453 69.1564C43.1742 69.5601 41.6254 66.958 43.1297 65.4282C44.3283 64.2029 46.497 64.2738 46.9473 65.9413C47.3215 67.3308 46.8557 68.8426 45.2453 69.1564Z" fill="white"/>
<path d="M18.8886 78.3223C17.9491 78.3232 17.0117 78.235 16.0889 78.0589C13.8662 77.6472 11.8327 76.539 10.2832 74.895C8.86197 73.4012 7.80631 71.4592 7.2301 69.2787C5.85338 64.0712 7.37565 58.4857 11.0161 55.3783C13.5957 53.1764 16.815 51.9639 20.0795 51.9639C23.5522 51.9639 26.8433 53.332 29.3433 55.8118C31.8031 58.2522 33.2697 60.9039 33.703 63.6924C34.2235 67.0504 33.2792 70.2476 30.9718 72.9368C28.1199 76.258 23.4905 78.3223 18.8886 78.3223Z" fill="white"/>
<path d="M20.0795 52.6882C23.2379 52.6882 26.3681 53.8853 28.8305 56.324C31.3134 58.7876 32.6028 61.346 32.9838 63.8019C34.2098 71.6996 26.4957 77.5963 18.8894 77.5963C17.9959 77.5978 17.1043 77.5139 16.2267 77.3458C6.63761 75.4936 4.6941 61.7266 11.4887 55.9281C14.0007 53.7844 17.0538 52.6882 20.0795 52.6882ZM20.0795 51.2345C16.642 51.2345 13.255 52.5094 10.5435 54.8259C8.57427 56.5087 7.1633 58.8449 6.47237 61.588C5.8346 64.1766 5.85344 66.8832 6.52716 69.4626C7.13419 71.7611 8.25064 73.8125 9.75665 75.3945C11.4157 77.1414 13.5827 78.3233 15.9511 78.7729C16.9195 78.9584 17.9034 79.0511 18.8894 79.05C23.6969 79.05 28.5377 76.8883 31.5231 73.4064C32.656 72.1056 33.5106 70.5872 34.0343 68.9444C34.5752 67.2097 34.707 65.3736 34.4196 63.5796C33.9624 60.6337 32.4264 57.8504 29.8536 55.2937C27.2157 52.6771 23.7439 51.2354 20.0778 51.2354L20.0795 51.2345Z" fill="#C55027"/>
<path d="M19.6429 75.2499C13.3226 72.6846 14.0829 64.0276 20.7987 62.5252C26.7714 61.1921 31.8176 68.026 27.7269 72.8214C25.6737 75.2243 22.8004 76.5291 19.6429 75.2499Z" fill="#010101"/>
<path d="M19.2464 69.5088C17.0161 69.9441 15.3483 67.1419 16.9673 65.4899C18.2635 64.1713 20.5932 64.2474 21.0769 66.0431C21.481 67.5429 20.9776 69.1711 19.2464 69.5088Z" fill="white"/>
<path d="M40.4653 103.077C39.2273 103.562 37.824 104.073 35.2829 104.274C32.5979 104.487 31.0876 104.051 29.8847 103.41C29.264 103.081 28.865 102.444 28.8616 101.981C28.8616 101.519 29.2409 101.041 29.6946 101.137C30.9789 101.405 32.246 102.272 34.8257 102.176C37.9781 102.059 39.0954 101.337 40.5192 101.064C40.9738 100.979 41.3608 101.434 41.3643 101.897C41.3677 102.357 41.0389 102.852 40.4653 103.077Z" fill="black"/>
<path d="M28.532 95.7594C28.5268 95.768 28.5405 95.7594 28.5474 95.7594C28.5542 95.7594 28.5636 95.7509 28.5722 95.7449C28.5808 95.7389 28.6082 95.7227 28.6261 95.7107C28.6612 95.685 28.6946 95.656 28.728 95.6252C28.7925 95.5652 28.85 95.4981 28.8993 95.4251C28.9903 95.2881 29.0359 95.1259 29.0294 94.9616C29.0273 94.9203 29.0227 94.8792 29.0157 94.8385C29.0055 94.7968 28.9929 94.7557 28.978 94.7154C28.9461 94.6289 28.9035 94.5468 28.8513 94.4708C28.7329 94.3052 28.59 94.1584 28.4275 94.0356C28.097 93.7705 27.7297 93.6217 27.365 93.6439C27.0003 93.6662 26.6287 93.8389 26.2759 94.0715C25.9145 94.3263 25.5738 94.6094 25.2571 94.918C25.0927 95.0745 24.9283 95.2327 24.7639 95.3952L24.2716 95.8851C23.942 96.2143 23.6064 96.5427 23.2631 96.8668L23.0062 97.1088L22.7391 97.3508C22.561 97.5124 22.3769 97.6697 22.1911 97.8245C21.8158 98.1374 21.4246 98.4308 21.019 98.7035C20.6049 98.9829 20.1708 99.2315 19.7202 99.4475C19.2575 99.6729 18.7686 99.8403 18.2647 99.946C17.7415 100.058 17.2006 100.058 16.6774 99.946C16.162 99.8289 15.6781 99.602 15.2587 99.2807C15.156 99.2043 15.057 99.124 14.9616 99.0396C14.8602 98.9528 14.7647 98.8594 14.6757 98.76C14.5821 98.6538 14.4984 98.5393 14.4257 98.4179C14.3499 98.2903 14.2906 98.1535 14.2493 98.0109C14.1649 97.7141 14.1649 97.3996 14.2493 97.1028C14.3315 96.819 14.4675 96.5537 14.65 96.3212C14.8282 96.0897 15.0397 95.8857 15.2776 95.7158C15.4049 95.6242 15.5405 95.5446 15.6825 95.4781C15.8489 95.3996 16.0261 95.3463 16.2082 95.3199L16.6937 95.2532C16.8349 95.2339 16.9788 95.2511 17.1116 95.303C17.2443 95.3549 17.3616 95.4399 17.4522 95.5499C17.5428 95.6599 17.6037 95.7912 17.6291 95.9313C17.6545 96.0714 17.6436 96.2157 17.5974 96.3505C17.5512 96.4852 17.4713 96.6059 17.3652 96.701C17.2591 96.7962 17.1304 96.8626 16.9913 96.8941C16.8523 96.9255 16.7074 96.9209 16.5707 96.8806C16.4339 96.8404 16.3097 96.7659 16.2099 96.6641C16.1598 96.6299 16.0989 96.6153 16.0387 96.6231C15.9558 96.6245 15.8735 96.6383 15.7947 96.6641C15.6192 96.7201 15.4566 96.8102 15.3161 96.9292C15.1771 97.0423 15.0659 97.1856 14.9907 97.3482C14.9222 97.5001 14.903 97.6697 14.9359 97.833C14.9779 98.0108 15.0648 98.1748 15.1885 98.3093C15.2554 98.3867 15.3287 98.4582 15.4077 98.5231C15.4933 98.5932 15.5789 98.6599 15.6645 98.7215C16.0025 98.9693 16.3967 99.1294 16.8118 99.1875C17.2228 99.2328 17.6387 99.1834 18.0276 99.043C18.4322 98.8954 18.817 98.6984 19.1731 98.4564C19.906 97.9707 20.5824 97.3619 21.2613 96.7462L22.2828 95.8056C22.6252 95.4875 22.984 95.1728 23.3513 94.865C23.5336 94.7102 23.7228 94.5614 23.9138 94.4127C24.1047 94.2639 24.2982 94.1168 24.4994 93.9766C24.9077 93.6816 25.3398 93.421 25.7914 93.1976C26.0311 93.0795 26.2817 92.9847 26.5396 92.9145C26.8129 92.8391 27.0963 92.8071 27.3796 92.8196C27.6671 92.8354 27.949 92.9059 28.21 93.0274C28.4548 93.1436 28.6821 93.2933 28.8856 93.472C29.0924 93.6426 29.2776 93.8379 29.4369 94.0535C29.4789 94.1091 29.5166 94.1707 29.5542 94.2305C29.5919 94.2904 29.6244 94.3562 29.6535 94.4246C29.7173 94.5625 29.7623 94.7083 29.7871 94.8582C29.8358 95.1652 29.8048 95.4797 29.6972 95.7714C29.6476 95.9133 29.5845 96.0502 29.5089 96.1801C29.472 96.2451 29.4327 96.3084 29.389 96.3708C29.3676 96.4025 29.3462 96.4341 29.3222 96.4657L29.2845 96.5136C29.2688 96.5336 29.2519 96.5528 29.234 96.5709C29.1801 96.6165 29.1177 96.6511 29.0505 96.6726C28.9832 96.6941 28.9123 96.7022 28.8419 96.6963C28.7715 96.6905 28.703 96.6708 28.6402 96.6385C28.5773 96.6063 28.5215 96.5619 28.4759 96.5081C28.4302 96.4542 28.3957 96.3919 28.3741 96.3247C28.3526 96.2575 28.3445 96.1868 28.3503 96.1165C28.3562 96.0461 28.3758 95.9777 28.4082 95.915C28.4405 95.8522 28.4849 95.7965 28.5388 95.7509L28.532 95.7594Z" fill="#231F20"/>
<path d="M40.5839 96.4444C40.5658 96.4262 40.5487 96.4071 40.5326 96.3871L40.4949 96.3392C40.4709 96.3085 40.4478 96.2777 40.4264 96.246C40.3819 96.1845 40.3408 96.1212 40.304 96.0571C40.2267 95.9281 40.1619 95.7921 40.1105 95.6509C39.9981 95.3607 39.9627 95.0464 40.0077 94.7385C40.0306 94.5886 40.0735 94.4425 40.1353 94.3041C40.1641 94.2372 40.1964 94.1718 40.232 94.1083C40.2689 94.0476 40.3057 93.986 40.3468 93.9296C40.5033 93.712 40.6855 93.5142 40.8896 93.3404C41.0906 93.1586 41.3163 93.006 41.56 92.8872C41.819 92.7617 42.0998 92.6871 42.387 92.6674C42.67 92.6523 42.9537 92.6812 43.2278 92.753C43.4867 92.8198 43.7387 92.9112 43.9804 93.0257C44.435 93.2429 44.8706 93.4978 45.2826 93.7876C45.4864 93.9253 45.6824 94.0698 45.8751 94.2152C46.0677 94.3605 46.2586 94.5068 46.4427 94.659C46.8143 94.9591 47.173 95.2687 47.5241 95.5825L48.5558 96.5077C49.2407 97.1122 49.9256 97.7108 50.6679 98.1871C51.0272 98.4242 51.4146 98.6157 51.8212 98.7575C52.2119 98.8927 52.6284 98.9363 53.0387 98.8849C53.4532 98.8213 53.8454 98.6559 54.18 98.4034C54.2656 98.341 54.3512 98.2735 54.4368 98.2016C54.5151 98.1356 54.5876 98.0629 54.6534 97.9844C54.7748 97.848 54.8594 97.6829 54.8991 97.5047C54.9298 97.3412 54.9082 97.1722 54.8375 97.0216C54.7599 96.8601 54.6469 96.7181 54.507 96.606C54.3644 96.4898 54.2004 96.4026 54.0241 96.3495C53.945 96.3256 53.8628 96.3129 53.7801 96.3119C53.7196 96.3048 53.6586 96.3203 53.6089 96.3555C53.5107 96.4586 53.3879 96.5349 53.2519 96.5772C53.1159 96.6195 52.9714 96.6264 52.832 96.5972C52.6926 96.568 52.563 96.5037 52.4554 96.4105C52.3479 96.3172 52.266 96.198 52.2176 96.0643C52.1691 95.9305 52.1557 95.7866 52.1786 95.6462C52.2015 95.5058 52.2599 95.3736 52.3484 95.2621C52.4368 95.1506 52.5523 95.0635 52.6839 95.0092C52.8155 94.9548 52.9589 94.9349 53.1003 94.9514L53.5909 95.0113C53.7738 95.0352 53.9522 95.0862 54.12 95.1626C54.2627 95.2275 54.3992 95.3054 54.5276 95.3952C54.768 95.5624 54.9823 95.7641 55.1637 95.9938C55.3497 96.2236 55.4892 96.4873 55.5747 96.7702C55.6632 97.0656 55.6677 97.3797 55.5875 97.6775C55.5478 97.8209 55.4903 97.9588 55.4163 98.0879C55.3447 98.2088 55.2628 98.3232 55.1714 98.4299C55.0833 98.5302 54.989 98.6247 54.8889 98.713C54.7956 98.7985 54.6971 98.884 54.5952 98.9584C54.1804 99.2853 53.6996 99.5186 53.1859 99.6425C52.664 99.7602 52.1231 99.7666 51.5986 99.6613C51.0921 99.5628 50.5997 99.4019 50.1328 99.1824C49.6793 98.9726 49.2418 98.73 48.8237 98.4565C48.4142 98.1897 48.019 97.9017 47.6397 97.5937C47.4513 97.4414 47.2655 97.2867 47.0849 97.1276L46.8143 96.8899L46.5575 96.6505C46.2098 96.3315 45.8725 96.0075 45.536 95.6834L45.0369 95.1994C44.8708 95.0403 44.703 94.8847 44.5369 94.7291C44.2165 94.4256 43.873 94.1474 43.5095 93.8971C43.1533 93.6679 42.7809 93.496 42.4144 93.4832C42.048 93.4704 41.6841 93.62 41.3571 93.8894C41.1962 94.0141 41.0553 94.1626 40.9392 94.3298C40.8885 94.4067 40.8471 94.4894 40.816 94.576C40.8019 94.6167 40.7902 94.658 40.7809 94.7C40.7737 94.7407 40.7694 94.7819 40.768 94.8232C40.7642 94.9876 40.8121 95.1491 40.905 95.2849C40.9542 95.3572 41.0117 95.4235 41.0762 95.4824C41.1088 95.5129 41.1431 95.5415 41.179 95.5679C41.1978 95.5808 41.2158 95.5919 41.2338 95.6021L41.2595 95.6158C41.2654 95.6158 41.2791 95.6261 41.274 95.6158C41.3286 95.6607 41.3738 95.716 41.407 95.7783C41.4402 95.8407 41.4608 95.909 41.4676 95.9793C41.4744 96.0496 41.4673 96.1205 41.4466 96.1881C41.426 96.2557 41.3922 96.3185 41.3472 96.373C41.3022 96.4275 41.247 96.4727 41.1845 96.5058C41.1221 96.539 41.0537 96.5596 40.9833 96.5664C40.9129 96.5732 40.8419 96.566 40.7742 96.5454C40.7066 96.5248 40.6437 96.491 40.5891 96.4461L40.5839 96.4444Z" fill="#231F20"/>
<path d="M32.3124 14.3327L29.7105 83.8522C29.6996 84.141 29.7479 84.4289 29.8524 84.6983C29.9569 84.9678 30.1154 85.213 30.3183 85.419C30.5211 85.6251 30.764 85.7875 31.032 85.8965C31.2999 86.0054 31.5874 86.0584 31.8766 86.0524L38.2234 85.9207C38.5072 85.9148 38.7868 85.8521 39.0459 85.7364C39.305 85.6206 39.5383 85.4543 39.7319 85.247C39.9255 85.0398 40.0756 84.7959 40.1732 84.5297C40.2709 84.2636 40.3142 83.9806 40.3005 83.6975L36.8587 14.4918C36.842 14.1455 36.7407 13.8085 36.5635 13.5104C36.3864 13.2123 36.1388 12.962 35.8424 12.7816L35.5393 12.5969C35.1424 12.3555 34.6772 12.2508 34.215 12.2986C33.7528 12.3465 33.3191 12.5444 32.9802 12.8619C32.572 13.245 32.332 13.7736 32.3124 14.3327Z" fill="black"/>
<path d="M35.1472 5.58166L40.0026 5.54831" stroke="#010101" stroke-width="3.43772" stroke-miterlimit="10"/>
<path d="M38.9522 5.08221L38.9582 5.92363C38.9586 6.04868 38.9864 6.17213 39.0397 6.28528C39.093 6.39843 39.1705 6.49853 39.2668 6.57851C39.363 6.6585 39.4757 6.71642 39.5967 6.74821C39.7178 6.78 39.8444 6.78487 39.9676 6.76248C40.5481 6.66244 41.1663 6.3546 41.1577 5.50121C41.1517 4.66664 40.5498 4.34768 39.9745 4.2331C39.8495 4.20841 39.7206 4.21188 39.5971 4.24326C39.4737 4.27464 39.3588 4.33314 39.2609 4.4145C39.1629 4.49585 39.0844 4.59801 39.031 4.71352C38.9776 4.82903 38.9507 4.95499 38.9522 5.08221Z" fill="#010101"/>
<path d="M35.1721 9.17393L40.0275 9.14058" stroke="#010101" stroke-width="3.43772" stroke-miterlimit="10"/>
<path d="M38.9771 8.6745L38.9831 9.51591C38.9835 9.64096 39.0113 9.76442 39.0646 9.87757C39.1179 9.99072 39.1954 10.0908 39.2917 10.1708C39.3879 10.2508 39.5005 10.3087 39.6216 10.3405C39.7427 10.3723 39.8693 10.3772 39.9925 10.3548C40.573 10.2547 41.1912 9.94774 41.1826 9.09349C41.1766 8.25892 40.5739 7.93997 39.9994 7.82624C39.8745 7.80156 39.7456 7.80502 39.6223 7.83635C39.4989 7.86768 39.384 7.9261 39.2861 8.00736C39.1882 8.08862 39.1096 8.19067 39.0562 8.30608C39.0027 8.42149 38.9757 8.54735 38.9771 8.6745Z" fill="#010101"/>
<path d="M34.4446 4.10995L29.5901 4.1433" stroke="#010101" stroke-width="3.43772" stroke-miterlimit="10"/>
<path d="M30.6334 3.66282L30.6394 4.50424C30.6402 4.62927 30.6138 4.75298 30.5619 4.86675C30.51 4.98053 30.4338 5.08164 30.3388 5.16303C30.2438 5.24443 30.1321 5.30416 30.0116 5.33806C29.8911 5.37196 29.7647 5.37922 29.6411 5.35933C29.0597 5.26698 28.4424 4.9677 28.4339 4.11346C28.4279 3.27973 29.0264 2.95223 29.5991 2.83081C29.7235 2.80439 29.8523 2.80597 29.976 2.83546C30.0997 2.86494 30.2153 2.92158 30.3143 3.00126C30.4133 3.08094 30.4934 3.18165 30.5486 3.29609C30.6038 3.41052 30.6327 3.5358 30.6334 3.66282Z" fill="#010101"/>
<path d="M34.5162 7.60651L29.6609 7.63986" stroke="#010101" stroke-width="3.43772" stroke-miterlimit="10"/>
<path d="M30.7054 7.16012L30.7114 8.00154C30.7124 8.12661 30.686 8.25039 30.6342 8.36424C30.5823 8.47809 30.5062 8.57926 30.4111 8.66069C30.3161 8.74212 30.2044 8.80184 30.0838 8.83568C29.9632 8.86952 29.8367 8.87668 29.7131 8.85663C29.1318 8.76428 28.5145 8.46585 28.5059 7.61161C28.4999 6.77703 29.0984 6.45039 29.6712 6.32896C29.7955 6.30255 29.9241 6.30413 30.0478 6.33356C30.1714 6.363 30.287 6.41956 30.386 6.49915C30.485 6.57873 30.5651 6.67934 30.6203 6.79366C30.6756 6.90799 30.7046 7.03317 30.7054 7.16012Z" fill="#010101"/>
<path d="M33.114 5.06511L32.0686 122.181" stroke="#BCBEC0" stroke-width="1.23044" stroke-miterlimit="10" stroke-linecap="round"/>
<path d="M33.8247 5.06082L34.0944 122.167" stroke="#BCBEC0" stroke-width="1.23044" stroke-miterlimit="10" stroke-linecap="round"/>
<path d="M35.6877 5.04797L38.4352 122.137" stroke="#BCBEC0" stroke-width="1.23044" stroke-miterlimit="10" stroke-linecap="round"/>
<path d="M34.8008 5.05396L36.4095 122.151" stroke="#BCBEC0" stroke-width="1.23044" stroke-miterlimit="10" stroke-linecap="round"/>
<path d="M32.6046 119.89L38.4548 119.769C39.7442 119.742 40.7048 120.836 40.3752 121.964C39.1457 126.17 37.1714 135.463 40.936 142.808C41.531 143.968 40.6329 145.152 39.2168 145.182L36.3058 145.388L32.7912 145.398C31.4333 145.426 30.4393 144.292 30.8939 143.134C32.3203 139.5 34.7108 131.966 30.8177 122.257C30.3605 121.125 31.2707 119.919 32.6046 119.89Z" fill="black"/>
<path d="M32.395 1.37107C31.7956 1.37535 31.3402 1.81658 31.4078 2.32023C31.5103 3.13226 31.5618 3.94991 31.5619 4.76838C31.567 5.80025 31.4631 6.82978 31.252 7.83989C31.1432 8.36492 31.615 8.84207 32.2417 8.83779H32.5653C33.1253 8.83779 33.5731 8.44103 33.5602 7.96559L33.4001 2.20223C33.3924 1.73534 32.9412 1.36679 32.395 1.37107Z" fill="#9B3521"/>
<path d="M36.5036 1.34969C37.103 1.34541 37.5644 1.77724 37.5036 2.28516C37.4127 3.0985 37.3724 3.91669 37.3829 4.73502C37.3924 5.76692 37.5103 6.79497 37.7348 7.80226C37.8513 8.32558 37.3855 8.80871 36.7588 8.81299H36.4351C35.8752 8.81299 35.4223 8.4299 35.4283 7.95789L35.5088 2.19025C35.5156 1.7285 35.9608 1.35311 36.5036 1.34969Z" fill="#9B3521"/>
<path d="M36.1568 1.0906C36.1029 0.549319 35.4805 0.132886 34.7347 0.138017L34.5053 0.138017H34.2767C33.5301 0.143147 32.9145 0.565566 32.8674 1.10941L31.6885 14.7055C31.6363 15.304 32.2878 15.8034 33.1123 15.7983L36.1149 15.7863C36.9368 15.7803 37.5832 15.2733 37.5233 14.6747L36.1568 1.0906Z" fill="#C54F27"/>
<path d="M8.51343 132.005C8.51343 132.005 26.761 123.07 29.2431 143.241C29.2431 143.241 35.0368 144.302 36.8391 142.771C38.6413 141.24 38.8708 144.67 36.7415 145.186C34.3014 145.778 12.5666 145.676 8.51343 132.005Z" fill="black"/>
<path d="M1.49976 101.804C1.49976 101.804 27.1712 108.157 35.8323 109.654C45.4505 111.317 75.1503 115.028 75.1503 115.028" stroke="white" stroke-width="3.08706" stroke-miterlimit="10"/>
<path d="M3.04337 102.693C3.04337 102.693 2.46374 100.203 3.42094 100.244C4.37814 100.284 16.4536 103.705 17.4382 103.901C18.4228 104.097 38.3588 108.491 61.6621 110.45L74.8925 111.229C74.8925 111.229 75.1622 112.763 75.5244 112.582C75.8865 112.401 78.5278 112.593 77.5167 113.608C76.5056 114.623 74.1939 114.378 74.1939 114.378L73.9122 115.508L83.4842 116.98L83.6555 112.574C83.6555 112.574 89.2805 113.498 89.9869 113.073C90.6932 112.648 91.504 111.294 89.3319 110.96C87.1598 110.625 70.5038 109.117 70.5038 109.117L59.5696 108.075C59.5696 108.075 41.8682 106.529 40.2355 106.385C38.6028 106.24 18.4596 103.249 16.8474 102.579C15.2353 101.909 2.9509 99.3748 2.56477 98.9952C2.17863 98.6155 1.36613 101.068 0.478275 101.297C-0.409576 101.526 1.56476 102.572 3.04337 102.693Z" fill="#603913"/>
<path d="M83.6573 112.577L83.4861 116.982L73.9141 115.51L74.1957 114.38C74.1957 114.38 76.5074 114.629 77.5186 113.61C78.5297 112.592 75.8918 112.4 75.5262 112.584C75.1607 112.768 74.8944 111.232 74.8944 111.232L83.6573 112.577Z" fill="black"/>
<path d="M73.4115 111.142L73.6778 109.409L68.2351 108.903L67.9397 110.819L73.4115 111.142Z" fill="black"/>
<path d="M67.9398 110.819L60.1692 110.406L60.4971 108.166L68.2352 108.903L67.9398 110.819Z" fill="#DBDDDC"/>
</g>
<defs>
<clipPath id="clip0">
<rect width="90.4829" height="145.274" fill="white" transform="translate(0.258301 0.138062)"/>
</clipPath>
</defs>
</svg>
