<svg width="91" height="146" viewBox="0 0 91 146" fill="none" xmlns="http://www.w3.org/2000/svg">
<g clip-path="url(#clip0)">
<path d="M58.6479 106.725C58.6726 105.909 58.4312 105.107 57.9602 104.439C57.4891 103.771 56.8138 103.275 56.0357 103.023C53.3448 102.163 50.1102 99.5372 49.8953 91.9208C49.6992 85.1536 51.4389 82.8764 53.1299 82.2368C54.6856 81.6502 55.5931 80.0358 55.4647 78.3803C55.2712 75.8894 55.4005 72.5656 56.7258 69.3505C58.8662 64.1592 54.8054 49.1804 34.6588 48.563C34.5432 48.563 34.4242 48.563 34.3095 48.563C14.1723 49.4575 10.3195 64.4901 12.5302 69.6515C13.9001 72.8487 14.0713 76.1699 13.9155 78.6634C13.8102 80.3205 14.7391 81.9213 16.3033 82.4874C18.0028 83.1022 19.7734 85.3545 19.6758 92.1235C19.5653 99.7433 16.3667 102.413 13.6886 103.311C12.9141 103.573 12.2459 104.08 11.7845 104.754C11.3232 105.429 11.0936 106.235 11.1303 107.051C11.4129 113.163 5.61743 122.261 8.68596 133.08C12.3838 146.117 35.1571 145.848 35.1571 145.848C35.1571 145.848 57.9313 145.804 61.4502 132.718C64.3663 121.857 58.445 112.841 58.6479 106.725Z" fill="#7D277E"/>
<path d="M48.7036 77.7492C47.8273 77.7501 46.9529 77.6679 46.0922 77.5038C42.0682 76.7265 38.9757 73.6627 37.825 69.3094C36.5408 64.4542 37.9612 59.2458 41.3576 56.347C43.7634 54.2947 46.7643 53.1634 49.8089 53.1634C53.0478 53.1634 56.1163 54.4375 58.4485 56.7549C60.7413 59.0294 62.1087 61.5015 62.5128 64.1027C62.9991 67.2367 62.1172 70.2201 59.9639 72.7307C57.3064 75.8236 52.9913 77.7492 48.7036 77.7492Z" fill="white"/>
<path d="M49.809 53.8894C52.7423 53.8894 55.6499 55.001 57.9367 57.2671C60.2424 59.5553 61.4402 61.9316 61.7895 64.2113C62.929 71.5481 55.768 77.0207 48.7037 77.0207C47.8749 77.0228 47.0478 76.9458 46.2337 76.7907C37.3243 75.0702 35.5221 62.2848 41.8321 56.8994C44.166 54.9078 46.9999 53.8894 49.8116 53.8894H49.809ZM49.8116 52.4357C46.5941 52.4357 43.4246 53.6278 40.8877 55.7929C39.0393 57.3705 37.7199 59.5604 37.0735 62.1266C36.4771 64.5479 36.4945 67.0795 37.124 69.4924C37.6925 71.6438 38.7387 73.5644 40.1488 75.0505C41.705 76.6871 43.7369 77.7939 45.9571 78.2144C46.8632 78.3873 47.7838 78.4732 48.7063 78.4709C53.2003 78.4709 57.7269 76.4495 60.5215 73.1958C61.5823 71.9771 62.3827 70.5548 62.8734 69.0161C63.3813 67.3894 63.5056 65.6674 63.2364 63.9847C62.8083 61.227 61.3717 58.619 58.9667 56.2324C56.4975 53.7825 53.2466 52.4332 49.8142 52.4332L49.8116 52.4357Z" fill="#C55027"/>
<path d="M45.356 74.9249C39.486 72.546 40.1924 64.5029 46.4296 63.1074C51.9767 61.8666 56.6634 68.2158 52.8637 72.6674C50.957 74.9009 48.2884 76.1134 45.356 74.9249Z" fill="#010101"/>
<path d="M44.987 69.5933C42.9159 69.9969 41.3671 67.3948 42.8714 65.8651C44.07 64.6397 46.2387 64.7107 46.689 66.3781C47.0632 67.7677 46.5974 69.2795 44.987 69.5933Z" fill="white"/>
<path d="M18.6305 78.7591C17.6911 78.76 16.7536 78.6718 15.8309 78.4957C13.6082 78.084 11.5746 76.9758 10.0252 75.3319C8.60391 73.838 7.54825 71.8961 6.97204 69.7156C5.59532 64.508 7.11759 58.9225 10.758 55.8151C13.3377 53.6132 16.5569 52.4007 19.8215 52.4007C23.2941 52.4007 26.5852 53.7688 29.0853 56.2486C31.545 58.6891 33.0117 61.3407 33.4449 64.1292C33.9655 67.4872 33.0211 70.6844 30.7137 73.3737C27.8618 76.6949 23.2325 78.7591 18.6305 78.7591Z" fill="white"/>
<path d="M19.8215 53.125C22.9799 53.125 26.1101 54.3221 28.5724 56.7608C31.0553 59.2244 32.3447 61.7828 32.7257 64.2387C33.9517 72.1364 26.2376 78.0331 18.6314 78.0331C17.7379 78.0346 16.8462 77.9507 15.9687 77.7826C6.37955 75.9304 4.43604 62.1634 11.2306 56.3649C13.7426 54.2212 16.7958 53.125 19.8215 53.125ZM19.8215 51.6713C16.3839 51.6713 12.9969 52.9462 10.2854 55.2627C8.31622 56.9455 6.90524 59.2817 6.21431 62.0248C5.57655 64.6134 5.59538 67.32 6.26911 69.8994C6.87613 72.1979 7.99258 74.2493 9.49859 75.8313C11.1576 77.5782 13.3246 78.7601 15.693 79.2097C16.6614 79.3952 17.6453 79.4879 18.6314 79.4868C23.4388 79.4868 28.2796 77.3251 31.2651 73.8432C32.398 72.5424 33.2525 71.024 33.7762 69.3812C34.3171 67.6465 34.449 65.8104 34.1615 64.0164C33.7043 61.0705 32.1683 58.2872 29.5955 55.7305C26.9577 53.1138 23.4859 51.6722 19.8198 51.6722L19.8215 51.6713Z" fill="#C55027"/>
<path d="M19.3848 75.6867C13.0645 73.1214 13.8248 64.4644 20.5406 62.962C26.5133 61.6289 31.5596 68.4629 27.4688 73.2583C25.4157 75.6611 22.5424 76.966 19.3848 75.6867Z" fill="#010101"/>
<path d="M18.9886 69.9456C16.7583 70.3809 15.0905 67.5787 16.7095 65.9267C18.0057 64.6081 20.3354 64.6842 20.8191 66.4799C21.2232 67.9797 20.7198 69.6079 18.9886 69.9456Z" fill="white"/>
<path d="M40.207 103.514C38.969 103.999 37.5657 104.51 35.0246 104.711C32.3396 104.923 30.8293 104.488 29.6264 103.847C29.0057 103.518 28.6067 102.881 28.6033 102.418C28.6033 101.955 28.9826 101.477 29.4363 101.574C30.7206 101.842 31.9877 102.709 34.5674 102.613C37.7198 102.496 38.8371 101.774 40.2609 101.501C40.7155 101.416 41.1025 101.871 41.106 102.334C41.1094 102.793 40.7806 103.289 40.207 103.514Z" fill="black"/>
<path d="M28.2737 96.1963C28.2685 96.2049 28.2822 96.1963 28.2891 96.1963C28.2959 96.1963 28.3053 96.1878 28.3139 96.1818C28.3225 96.1758 28.3499 96.1595 28.3678 96.1476C28.4029 96.1219 28.4363 96.0928 28.4697 96.0621C28.5342 96.0021 28.5917 95.935 28.641 95.862C28.732 95.725 28.7776 95.5628 28.7711 95.3985C28.769 95.3572 28.7644 95.3161 28.7574 95.2754C28.7472 95.2336 28.7346 95.1925 28.7197 95.1522C28.6878 95.0658 28.6452 94.9836 28.593 94.9077C28.4746 94.742 28.3317 94.5953 28.1692 94.4724C27.8387 94.2073 27.4714 94.0586 27.1067 94.0808C26.742 94.103 26.3704 94.2758 26.0176 94.5083C25.6562 94.7632 25.3155 95.0462 24.9988 95.3549C24.8344 95.5114 24.67 95.6696 24.5056 95.832L24.0133 96.322C23.6837 96.6512 23.3481 96.9796 23.0048 97.3037L22.7479 97.5457L22.4808 97.7876C22.3027 97.9493 22.1186 98.1066 21.9328 98.2614C21.5575 98.5742 21.1663 98.8676 20.7607 99.1404C20.3466 99.4198 19.9125 99.6684 19.4619 99.8843C18.9992 100.11 18.5103 100.277 18.0064 100.383C17.4832 100.494 16.9423 100.494 16.4191 100.383C15.9037 100.266 15.4198 100.039 15.0004 99.7176C14.8977 99.6412 14.7986 99.5608 14.7033 99.4765C14.6019 99.3897 14.5064 99.2963 14.4174 99.1968C14.3238 99.0907 14.2401 98.9762 14.1674 98.8548C14.0916 98.7271 14.0323 98.5904 13.991 98.4478C13.9066 98.1509 13.9066 97.8365 13.991 97.5397C14.0731 97.2559 14.2092 96.9906 14.3917 96.7581C14.5699 96.5266 14.7814 96.3226 15.0193 96.1527C15.1466 96.0611 15.2822 95.9815 15.4242 95.915C15.5906 95.8365 15.7678 95.7832 15.9499 95.7568L16.4354 95.6901C16.5766 95.6708 16.7205 95.6879 16.8533 95.7399C16.986 95.7918 17.1033 95.8768 17.1939 95.9868C17.2845 96.0968 17.3454 96.2281 17.3708 96.3682C17.3962 96.5083 17.3853 96.6526 17.3391 96.7873C17.2929 96.9221 17.213 97.0428 17.1069 97.1379C17.0008 97.2331 16.8721 97.2995 16.733 97.331C16.594 97.3624 16.4491 97.3578 16.3124 97.3175C16.1756 97.2773 16.0514 97.2027 15.9516 97.101C15.9015 97.0668 15.8406 97.0522 15.7804 97.06C15.6975 97.0614 15.6152 97.0752 15.5364 97.101C15.3609 97.157 15.1983 97.2471 15.0578 97.3661C14.9188 97.4792 14.8076 97.6225 14.7324 97.7851C14.6639 97.937 14.6447 98.1066 14.6776 98.2699C14.7196 98.4477 14.8065 98.6117 14.9302 98.7462C14.9971 98.8236 15.0704 98.8951 15.1494 98.96C15.235 99.0301 15.3206 99.0968 15.4062 99.1584C15.7442 99.4062 16.1384 99.5663 16.5535 99.6244C16.9645 99.6697 17.3804 99.6203 17.7693 99.4799C18.1739 99.3323 18.5587 99.1353 18.9148 98.8933C19.6477 98.4076 20.3241 97.7988 21.003 97.1831L22.0245 96.2425C22.3669 95.9244 22.7257 95.6097 23.093 95.3019C23.2753 95.1471 23.4645 94.9983 23.6555 94.8495C23.8464 94.7007 24.0399 94.5537 24.2411 94.4134C24.6494 94.1185 25.0815 93.8579 25.5331 93.6344C25.7728 93.5164 26.0234 93.4216 26.2813 93.3514C26.5546 93.276 26.838 93.2439 27.1213 93.2565C27.4088 93.2723 27.6907 93.3428 27.9517 93.4643C28.1965 93.5805 28.4238 93.7302 28.6273 93.9089C28.8341 94.0795 29.0193 94.2748 29.1786 94.4904C29.2206 94.546 29.2583 94.6075 29.2959 94.6674C29.3336 94.7272 29.3661 94.7931 29.3952 94.8615C29.459 94.9994 29.504 95.1452 29.5288 95.295C29.5775 95.6021 29.5465 95.9165 29.4389 96.2083C29.3893 96.3502 29.3262 96.4871 29.2506 96.617C29.2137 96.682 29.1744 96.7453 29.1307 96.8077C29.1093 96.8393 29.0879 96.871 29.0639 96.9026L29.0262 96.9505C29.0105 96.9705 28.9936 96.9897 28.9757 97.0078C28.9218 97.0534 28.8594 97.0879 28.7922 97.1094C28.7249 97.131 28.654 97.139 28.5836 97.1332C28.5132 97.1274 28.4447 97.1077 28.3819 97.0754C28.319 97.0431 28.2632 96.9988 28.2176 96.9449C28.1719 96.8911 28.1374 96.8288 28.1158 96.7616C28.0943 96.6944 28.0862 96.6236 28.092 96.5533C28.0979 96.483 28.1175 96.4146 28.1499 96.3518C28.1822 96.2891 28.2266 96.2333 28.2805 96.1878L28.2737 96.1963Z" fill="#231F20"/>
<path d="M40.3261 96.8812C40.308 96.863 40.2909 96.8439 40.2748 96.8239L40.2371 96.776C40.2131 96.7452 40.19 96.7144 40.1686 96.6828C40.1241 96.6212 40.083 96.558 40.0462 96.4938C39.9689 96.3649 39.9041 96.2289 39.8527 96.0877C39.7403 95.7974 39.7049 95.4832 39.7499 95.1753C39.7727 95.0254 39.8157 94.8793 39.8775 94.7409C39.9063 94.674 39.9386 94.6086 39.9742 94.5451C40.0111 94.4844 40.0479 94.4228 40.089 94.3664C40.2454 94.1488 40.4277 93.951 40.6318 93.7772C40.8328 93.5954 41.0585 93.4428 41.3022 93.324C41.5612 93.1985 41.842 93.1239 42.1292 93.1042C42.4122 93.0891 42.6958 93.118 42.97 93.1897C43.2289 93.2566 43.4809 93.348 43.7226 93.4625C44.1772 93.6797 44.6128 93.9346 45.0248 94.2244C45.2286 94.3621 45.4246 94.5066 45.6173 94.652C45.8099 94.7973 46.0008 94.9435 46.1849 95.0958C46.5565 95.3959 46.9152 95.7054 47.2663 96.0193L48.2979 96.9445C48.9829 97.549 49.6678 98.1476 50.4101 98.6239C50.7694 98.8609 51.1568 99.0525 51.5634 99.1942C51.954 99.3295 52.3706 99.3731 52.7809 99.3216C53.1954 99.2581 53.5875 99.0927 53.9221 98.8402C54.0078 98.7778 54.0934 98.7103 54.179 98.6384C54.2573 98.5724 54.3298 98.4997 54.3956 98.4212C54.517 98.2848 54.6016 98.1197 54.6413 97.9415C54.672 97.778 54.6504 97.609 54.5797 97.4584C54.502 97.2969 54.3891 97.1549 54.2492 97.0428C54.1066 96.9266 53.9425 96.8394 53.7663 96.7863C53.6872 96.7624 53.605 96.7497 53.5223 96.7487C53.4618 96.7416 53.4008 96.7571 53.3511 96.7923C53.2529 96.8953 53.13 96.9716 52.9941 97.0139C52.8581 97.0562 52.7135 97.0631 52.5742 97.034C52.4348 97.0048 52.3051 96.9405 52.1976 96.8472C52.0901 96.754 52.0082 96.6348 51.9598 96.501C51.9113 96.3673 51.8979 96.2234 51.9208 96.083C51.9437 95.9426 52.0021 95.8104 52.0906 95.6989C52.179 95.5874 52.2945 95.5003 52.4261 95.4459C52.5577 95.3916 52.7011 95.3717 52.8425 95.3882L53.3331 95.4481C53.516 95.472 53.6943 95.523 53.8622 95.5994C54.0049 95.6643 54.1413 95.7421 54.2698 95.832C54.5101 95.9991 54.7245 96.2008 54.9059 96.4306C55.0918 96.6604 55.2314 96.9241 55.3169 97.207C55.4054 97.5023 55.4099 97.8165 55.3297 98.1142C55.29 98.2577 55.2325 98.3955 55.1585 98.5247C55.0869 98.6456 55.005 98.76 54.9136 98.8667C54.8255 98.9669 54.7311 99.0615 54.6311 99.1498C54.5377 99.2353 54.4393 99.3208 54.3374 99.3952C53.9225 99.7221 53.4418 99.9554 52.9281 100.079C52.4062 100.197 51.8653 100.203 51.3408 100.098C50.8343 99.9995 50.3419 99.8387 49.875 99.6192C49.4215 99.4094 48.984 99.1668 48.5659 98.8932C48.1564 98.6265 47.7612 98.3385 47.3818 98.0304C47.1935 97.8782 47.0077 97.7235 46.827 97.5644L46.5565 97.3267L46.2996 97.0873C45.952 96.7683 45.6147 96.4442 45.2782 96.1202L44.7791 95.6362C44.613 95.4771 44.4452 95.3215 44.2791 95.1659C43.9587 94.8624 43.6152 94.5842 43.2517 94.3339C42.8955 94.1047 42.5231 93.9328 42.1566 93.92C41.7902 93.9072 41.4263 94.0568 41.0992 94.3262C40.9384 94.4509 40.7975 94.5994 40.6814 94.7665C40.6307 94.8435 40.5893 94.9261 40.5581 95.0128C40.5441 95.0534 40.5324 95.0948 40.523 95.1368C40.5159 95.1775 40.5116 95.2186 40.5102 95.2599C40.5064 95.4244 40.5543 95.5858 40.6472 95.7217C40.6964 95.7939 40.7539 95.8602 40.8184 95.9192C40.851 95.9497 40.8853 95.9782 40.9212 96.0047C40.94 96.0175 40.958 96.0287 40.976 96.0389L41.0016 96.0526C41.0076 96.0526 41.0213 96.0629 41.0162 96.0526C41.0708 96.0975 41.116 96.1527 41.1492 96.2151C41.1824 96.2775 41.203 96.3457 41.2098 96.4161C41.2166 96.4864 41.2095 96.5573 41.1888 96.6249C41.1682 96.6924 41.1344 96.7553 41.0894 96.8098C41.0444 96.8643 40.9891 96.9094 40.9267 96.9426C40.8643 96.9758 40.7959 96.9964 40.7255 97.0032C40.6551 97.01 40.584 97.0028 40.5164 96.9822C40.4488 96.9616 40.3858 96.9278 40.3313 96.8829L40.3261 96.8812Z" fill="#231F20"/>
<path d="M32.0546 14.7695L29.4527 84.289C29.4418 84.5778 29.4901 84.8657 29.5946 85.1351C29.6991 85.4046 29.8576 85.6498 30.0605 85.8558C30.2633 86.0619 30.5062 86.2243 30.7742 86.3333C31.0421 86.4422 31.3296 86.4952 31.6188 86.4892L37.9656 86.3575C38.2494 86.3516 38.529 86.2889 38.7881 86.1732C39.0472 86.0574 39.2804 85.8911 39.4741 85.6838C39.6677 85.4766 39.8178 85.2327 39.9154 84.9665C40.0131 84.7004 40.0564 84.4174 40.0427 84.1343L36.6009 14.9286C36.5842 14.5823 36.4829 14.2453 36.3057 13.9472C36.1285 13.6491 35.881 13.3988 35.5846 13.2184L35.2815 13.0337C34.8846 12.7923 34.4194 12.6876 33.9572 12.7354C33.495 12.7833 33.0613 12.9812 32.7224 13.2987C32.3142 13.6818 32.0742 14.2104 32.0546 14.7695Z" fill="black"/>
<path d="M34.8894 6.01844L39.7448 5.98509" stroke="#010101" stroke-width="3.43772" stroke-miterlimit="10"/>
<path d="M38.6942 5.51906L38.7001 6.36048C38.7005 6.48553 38.7283 6.60898 38.7816 6.72213C38.8349 6.83528 38.9125 6.93537 39.0087 7.01536C39.105 7.09534 39.2176 7.15327 39.3387 7.18505C39.4598 7.21684 39.5864 7.22171 39.7096 7.19933C40.2901 7.09928 40.9082 6.79145 40.8997 5.93806C40.8937 5.10348 40.2918 4.78453 39.7164 4.66994C39.5915 4.64525 39.4625 4.64872 39.3391 4.6801C39.2156 4.71149 39.1008 4.76999 39.0028 4.85134C38.9049 4.93269 38.8263 5.03485 38.7729 5.15036C38.7195 5.26588 38.6926 5.39184 38.6942 5.51906Z" fill="#010101"/>
<path d="M34.9141 9.6107L39.7694 9.57735" stroke="#010101" stroke-width="3.43772" stroke-miterlimit="10"/>
<path d="M38.719 9.11132L38.725 9.95274C38.7254 10.0778 38.7532 10.2012 38.8065 10.3144C38.8598 10.4275 38.9373 10.5276 39.0336 10.6076C39.1298 10.6876 39.2425 10.7455 39.3636 10.7773C39.4847 10.8091 39.6113 10.814 39.7345 10.7916C40.315 10.6915 40.9331 10.3846 40.9246 9.53032C40.9186 8.69575 40.3158 8.3768 39.7413 8.26307C39.6164 8.23839 39.4876 8.24184 39.3642 8.27318C39.2408 8.30451 39.126 8.36293 39.028 8.44419C38.9301 8.52545 38.8516 8.6275 38.7981 8.74291C38.7447 8.85831 38.7176 8.98418 38.719 9.11132Z" fill="#010101"/>
<path d="M34.1865 4.5468L29.332 4.58015" stroke="#010101" stroke-width="3.43772" stroke-miterlimit="10"/>
<path d="M30.3756 4.09959L30.3816 4.941C30.3824 5.06603 30.356 5.18974 30.3041 5.30352C30.2522 5.4173 30.176 5.51841 30.081 5.5998C29.986 5.6812 29.8743 5.74093 29.7538 5.77483C29.6333 5.80873 29.5069 5.81599 29.3833 5.7961C28.8019 5.70375 28.1846 5.40447 28.1761 4.55022C28.1701 3.7165 28.7685 3.389 29.3413 3.26758C29.4657 3.24115 29.5945 3.24274 29.7182 3.27223C29.8419 3.30171 29.9574 3.35835 30.0565 3.43803C30.1555 3.51771 30.2356 3.61842 30.2908 3.73286C30.346 3.84729 30.3749 3.97257 30.3756 4.09959Z" fill="#010101"/>
<path d="M34.2584 8.0433L29.4031 8.07665" stroke="#010101" stroke-width="3.43772" stroke-miterlimit="10"/>
<path d="M30.4474 7.59695L30.4534 8.43836C30.4543 8.56344 30.428 8.68722 30.3761 8.80107C30.3243 8.91492 30.2481 9.01609 30.1531 9.09752C30.058 9.17895 29.9463 9.23867 29.8257 9.27251C29.7052 9.30635 29.5787 9.3135 29.4551 9.29346C28.8737 9.20111 28.2564 8.90268 28.2478 8.04844C28.2419 7.21386 28.8403 6.88722 29.4131 6.76579C29.5374 6.73938 29.6661 6.74095 29.7897 6.77039C29.9134 6.79983 30.0289 6.85639 30.1279 6.93597C30.227 7.01556 30.307 7.11616 30.3623 7.23049C30.4175 7.34482 30.4466 7.47 30.4474 7.59695Z" fill="#010101"/>
<path d="M32.8559 5.50195L31.8105 122.618" stroke="#BCBEC0" stroke-width="1.23044" stroke-miterlimit="10" stroke-linecap="round"/>
<path d="M33.5664 5.49768L33.8361 122.603" stroke="#BCBEC0" stroke-width="1.23044" stroke-miterlimit="10" stroke-linecap="round"/>
<path d="M35.4297 5.48485L38.1771 122.574" stroke="#BCBEC0" stroke-width="1.23044" stroke-miterlimit="10" stroke-linecap="round"/>
<path d="M34.5425 5.49084L36.1512 122.588" stroke="#BCBEC0" stroke-width="1.23044" stroke-miterlimit="10" stroke-linecap="round"/>
<path d="M32.3465 120.327L38.1967 120.206C39.4861 120.179 40.4468 121.273 40.1171 122.401C38.8877 126.607 36.9133 135.899 40.6779 143.245C41.273 144.405 40.3749 145.589 38.9587 145.618L36.0478 145.825L32.5332 145.835C31.1753 145.863 30.1813 144.729 30.6359 143.571C32.0623 139.937 34.4527 132.403 30.5597 122.694C30.1025 121.562 31.0126 120.355 32.3465 120.327Z" fill="black"/>
<path d="M32.1367 1.80793C31.5373 1.8122 31.0819 2.25344 31.1495 2.75709C31.252 3.56912 31.3035 4.38677 31.3036 5.20524C31.3087 6.23711 31.2048 7.26664 30.9937 8.27675C30.8849 8.80178 31.3567 9.27893 31.9834 9.27465H32.307C32.867 9.27465 33.3148 8.87788 33.3019 8.40245L33.1418 2.63908C33.1341 2.1722 32.6829 1.80365 32.1367 1.80793Z" fill="#9B3521"/>
<path d="M36.2453 1.78655C36.8447 1.78227 37.3061 2.2141 37.2453 2.72202C37.1544 3.53536 37.1141 4.35355 37.1246 5.17188C37.1341 6.20378 37.252 7.23183 37.4765 8.23912C37.593 8.76244 37.1272 9.24557 36.5005 9.24985H36.1768C35.6169 9.24985 35.164 8.86676 35.17 8.39475L35.2505 2.62711C35.2573 2.16535 35.7025 1.78997 36.2453 1.78655Z" fill="#9B3521"/>
<path d="M35.8988 1.52746C35.8449 0.986179 35.2224 0.569745 34.4767 0.574876H34.2472H34.0186C33.2721 0.580007 32.6565 1.00243 32.6094 1.54627L31.4304 15.1423C31.3782 15.7409 32.0297 16.2403 32.8542 16.2352L35.8568 16.2232C36.6788 16.2172 37.3252 15.7101 37.2652 15.1116L35.8988 1.52746Z" fill="#C54F27"/>
<path d="M8.25537 132.442C8.25537 132.442 26.503 123.507 28.985 143.677C28.985 143.677 34.7788 144.739 36.581 143.208C38.3832 141.677 38.6127 145.107 36.4834 145.623C34.0433 146.214 12.3085 146.113 8.25537 132.442Z" fill="black"/>
<path d="M1.24194 102.241C1.24194 102.241 26.9134 108.593 35.5745 110.091C45.1927 111.754 74.8925 115.465 74.8925 115.465" stroke="white" stroke-width="3.08706" stroke-miterlimit="10"/>
<path d="M2.78531 103.129C2.78531 103.129 2.20568 100.64 3.16288 100.68C4.12009 100.721 16.1955 104.142 17.1801 104.338C18.1647 104.534 38.1007 108.928 61.404 110.887L74.6345 111.666C74.6345 111.666 74.9042 113.2 75.2663 113.019C75.6285 112.837 78.2698 113.03 77.2586 114.045C76.2475 115.06 73.9358 114.814 73.9358 114.814L73.6542 115.945L83.2262 117.416L83.3974 113.011C83.3974 113.011 89.0225 113.934 89.7288 113.509C90.4351 113.084 91.2459 111.731 89.0738 111.397C86.9017 111.062 70.2457 109.554 70.2457 109.554L59.3116 108.512C59.3116 108.512 41.6102 106.966 39.9775 106.822C38.3447 106.677 18.2016 103.686 16.5894 103.016C14.9772 102.345 2.69285 99.8117 2.30671 99.432C1.92058 99.0523 1.10807 101.505 0.220219 101.734C-0.667632 101.963 1.3067 103.009 2.78531 103.129Z" fill="#603913"/>
<path d="M83.399 113.013L83.2278 117.419L73.6558 115.947L73.9374 114.817C73.9374 114.817 76.2491 115.066 77.2603 114.047C78.2714 113.029 75.6335 112.837 75.2679 113.021C74.9024 113.205 74.6361 111.668 74.6361 111.668L83.399 113.013Z" fill="black"/>
<path d="M73.1534 111.579L73.4197 109.846L67.977 109.34L67.6816 111.256L73.1534 111.579Z" fill="black"/>
<path d="M67.6818 111.256L59.9111 110.842L60.239 108.603L67.9771 109.34L67.6818 111.256Z" fill="#DBDDDC"/>
</g>
<defs>
<clipPath id="clip0">
<rect width="90.4829" height="145.274" fill="white" transform="translate(0 0.57489)"/>
</clipPath>
</defs>
</svg>
