<svg width="91" height="146" viewBox="0 0 91 146" fill="none" xmlns="http://www.w3.org/2000/svg">
<g clip-path="url(#clip0)">
<path d="M58.9062 106.385C58.9309 105.568 58.6895 104.766 58.2185 104.099C57.7474 103.431 57.0721 102.934 56.294 102.683C53.6031 101.823 50.3685 99.1967 50.1536 91.5803C49.9575 84.813 51.6972 82.5359 53.3882 81.8963C54.9439 81.3097 55.8514 79.6953 55.723 78.0398C55.5295 75.5489 55.6588 72.2251 56.9841 69.0099C59.1245 63.8186 55.0637 48.8399 34.9171 48.2225C34.8015 48.2225 34.6825 48.2225 34.5678 48.2225C14.4306 49.1169 10.5778 64.1496 12.7885 69.3109C14.1584 72.5082 14.3296 75.8294 14.1738 78.3228C14.0685 79.98 14.9974 81.5808 16.5616 82.1468C18.2611 82.7617 20.0317 85.014 19.9341 91.7829C19.8236 99.4027 16.625 102.072 13.9469 102.97C13.1724 103.233 12.5042 103.739 12.0428 104.414C11.5815 105.088 11.3519 105.894 11.3886 106.71C11.6712 112.823 5.87573 121.92 8.94426 132.74C12.6421 145.776 35.4154 145.508 35.4154 145.508C35.4154 145.508 58.1896 145.463 61.7085 132.377C64.6246 121.516 58.7033 112.5 58.9062 106.385Z" fill="#FFF101"/>
<path d="M48.9616 77.4087C48.0854 77.4095 47.211 77.3273 46.3503 77.1633C42.3263 76.386 39.2338 73.3222 38.0831 68.9689C36.7988 64.1136 38.2192 58.9052 41.6157 56.0064C44.0215 53.9542 47.0224 52.8229 50.0669 52.8229C53.3058 52.8229 56.3744 54.097 58.7066 56.4143C60.9994 58.6889 62.3667 61.161 62.7708 63.7622C63.2571 66.8961 62.3753 69.8796 60.222 72.3901C57.5644 75.483 53.2493 77.4087 48.9616 77.4087Z" fill="white"/>
<path d="M50.0671 53.5489C53.0004 53.5489 55.9079 54.6606 58.1948 56.9266C60.5004 59.2148 61.6982 61.5911 62.0475 63.8708C63.1871 71.2076 56.0261 76.6802 48.9618 76.6802C48.133 76.6823 47.3059 76.6053 46.4917 76.4502C37.5824 74.7297 35.7801 61.9443 42.0901 56.5589C44.4241 54.5674 47.258 53.5489 50.0697 53.5489H50.0671ZM50.0697 52.0953C46.8522 52.0953 43.6826 53.2873 41.1458 55.4524C39.2973 57.03 37.9779 59.2199 37.3315 61.7861C36.7352 64.2074 36.7525 66.739 37.382 69.1519C37.9505 71.3034 38.9968 73.2239 40.4069 74.7101C41.9631 76.3467 43.9949 77.4534 46.2152 77.8739C47.1213 78.0468 48.0419 78.1327 48.9644 78.1305C53.4584 78.1305 57.985 76.109 60.7795 72.8554C61.8404 71.6367 62.6407 70.2143 63.1314 68.6756C63.6394 67.0489 63.7636 65.3269 63.4945 63.6442C63.0664 60.8865 61.6297 58.2785 59.2247 55.8919C56.7555 53.442 53.5046 52.0927 50.0722 52.0927L50.0697 52.0953Z" fill="#C55027"/>
<path d="M45.6143 74.5844C39.7443 72.2055 40.4507 64.1624 46.6879 62.7669C52.235 61.5261 56.9217 67.8752 53.122 72.3269C51.2153 74.5604 48.5467 75.7729 45.6143 74.5844Z" fill="#010101"/>
<path d="M45.2453 69.2528C43.1742 69.6564 41.6254 67.0543 43.1297 65.5246C44.3283 64.2992 46.497 64.3702 46.9473 66.0376C47.3215 67.4271 46.8557 68.939 45.2453 69.2528Z" fill="white"/>
<path d="M18.8888 78.4186C17.9494 78.4196 17.0119 78.3314 16.0892 78.1553C13.8665 77.7436 11.8329 76.6354 10.2835 74.9914C8.86221 73.4975 7.80655 71.5556 7.23035 69.3751C5.85362 64.1676 7.37589 58.5821 11.0163 55.4746C13.596 53.2728 16.8152 52.0602 20.0798 52.0602C23.5524 52.0602 26.8435 53.4284 29.3436 55.9082C31.8034 58.3486 33.27 61.0003 33.7032 63.7888C34.2238 67.1467 33.2794 70.3439 30.972 73.0332C28.1201 76.3544 23.4908 78.4186 18.8888 78.4186Z" fill="white"/>
<path d="M20.0795 52.7844C23.2379 52.7844 26.3681 53.9815 28.8305 56.4203C31.3134 58.8838 32.6028 61.4423 32.9838 63.8981C34.2098 71.7958 26.4957 77.6926 18.8894 77.6926C17.9959 77.694 17.1043 77.6101 16.2267 77.442C6.63761 75.5899 4.6941 61.8228 11.4887 56.0244C14.0007 53.8806 17.0538 52.7844 20.0795 52.7844ZM20.0795 51.3307C16.642 51.3307 13.255 52.6057 10.5435 54.9222C8.57427 56.605 7.1633 58.9411 6.47237 61.6843C5.8346 64.2728 5.85344 66.9794 6.52716 69.5589C7.13419 71.8574 8.25064 73.9088 9.75665 75.4907C11.4157 77.2377 13.5827 78.4195 15.9511 78.8692C16.9195 79.0546 17.9034 79.1474 18.8894 79.1462C23.6969 79.1462 28.5377 76.9846 31.5231 73.5026C32.656 72.2019 33.5106 70.6834 34.0343 69.0407C34.5752 67.306 34.707 65.4698 34.4196 63.6758C33.9624 60.73 32.4264 57.9466 29.8536 55.3899C27.2157 52.7733 23.7439 51.3316 20.0778 51.3316L20.0795 51.3307Z" fill="#C55027"/>
<path d="M19.6429 75.3462C13.3226 72.7809 14.0829 64.1239 20.7987 62.6215C26.7714 61.2884 31.8176 68.1223 27.7269 72.9177C25.6737 75.3205 22.8004 76.6254 19.6429 75.3462Z" fill="#010101"/>
<path d="M19.2467 69.6051C17.0163 70.0404 15.3485 67.2382 16.9675 65.5862C18.2638 64.2676 20.5934 64.3437 21.0772 66.1394C21.4813 67.6393 20.9778 69.2674 19.2467 69.6051Z" fill="white"/>
<path d="M40.465 103.174C39.227 103.659 37.8237 104.169 35.2826 104.371C32.5977 104.583 31.0874 104.148 29.8845 103.506C29.2637 103.177 28.8648 102.54 28.8613 102.077C28.8613 101.615 29.2406 101.137 29.6944 101.233C30.9786 101.501 32.2458 102.368 34.8254 102.272C37.9779 102.155 39.0952 101.434 40.519 101.161C40.9736 101.075 41.3606 101.53 41.364 101.994C41.3674 102.453 41.0387 102.949 40.465 103.174Z" fill="black"/>
<path d="M28.532 95.8558C28.5268 95.8643 28.5405 95.8558 28.5474 95.8558C28.5542 95.8558 28.5636 95.8472 28.5722 95.8413C28.5808 95.8353 28.6082 95.819 28.6261 95.8071C28.6612 95.7814 28.6946 95.7523 28.728 95.7216C28.7925 95.6616 28.85 95.5944 28.8993 95.5215C28.9903 95.3845 29.0359 95.2223 29.0294 95.058C29.0273 95.0167 29.0227 94.9756 29.0157 94.9349C29.0055 94.8931 28.9929 94.852 28.978 94.8117C28.9461 94.7253 28.9035 94.6431 28.8513 94.5672C28.7329 94.4015 28.59 94.2548 28.4275 94.1319C28.097 93.8668 27.7297 93.7181 27.365 93.7403C27.0003 93.7625 26.6287 93.9352 26.2759 94.1678C25.9145 94.4227 25.5738 94.7057 25.2571 95.0144C25.0927 95.1709 24.9283 95.3291 24.7639 95.4915L24.2716 95.9815C23.942 96.3107 23.6064 96.6391 23.2631 96.9631L23.0062 97.2051L22.7391 97.4471C22.561 97.6087 22.3769 97.7661 22.1911 97.9209C21.8158 98.2337 21.4246 98.5271 21.019 98.7999C20.6049 99.0793 20.1708 99.3279 19.7202 99.5438C19.2575 99.7693 18.7686 99.9367 18.2647 100.042C17.7415 100.154 17.2006 100.154 16.6774 100.042C16.162 99.9253 15.6781 99.6983 15.2587 99.3771C15.156 99.3007 15.057 99.2203 14.9616 99.136C14.8602 99.0492 14.7647 98.9558 14.6757 98.8563C14.5821 98.7502 14.4984 98.6357 14.4257 98.5143C14.3499 98.3866 14.2906 98.2499 14.2493 98.1073C14.1649 97.8104 14.1649 97.496 14.2493 97.1992C14.3315 96.9154 14.4675 96.65 14.65 96.4176C14.8282 96.1861 15.0397 95.9821 15.2776 95.8122C15.4049 95.7206 15.5405 95.641 15.6825 95.5745C15.8489 95.496 16.0261 95.4427 16.2082 95.4163L16.6937 95.3496C16.8349 95.3303 16.9788 95.3474 17.1116 95.3994C17.2443 95.4513 17.3616 95.5363 17.4522 95.6463C17.5428 95.7563 17.6037 95.8875 17.6291 96.0277C17.6545 96.1678 17.6436 96.3121 17.5974 96.4468C17.5512 96.5816 17.4713 96.7022 17.3652 96.7974C17.2591 96.8926 17.1304 96.959 16.9913 96.9905C16.8523 97.0219 16.7074 97.0173 16.5707 96.977C16.4339 96.9368 16.3097 96.8622 16.2099 96.7605C16.1598 96.7263 16.0989 96.7117 16.0387 96.7194C15.9558 96.7208 15.8735 96.7347 15.7947 96.7605C15.6192 96.8165 15.4566 96.9066 15.3161 97.0256C15.1771 97.1387 15.0659 97.282 14.9907 97.4446C14.9222 97.5965 14.903 97.7661 14.9359 97.9294C14.9779 98.1072 15.0648 98.2712 15.1885 98.4057C15.2554 98.4831 15.3287 98.5546 15.4077 98.6195C15.4933 98.6896 15.5789 98.7563 15.6645 98.8179C16.0025 99.0656 16.3967 99.2258 16.8118 99.2839C17.2228 99.3292 17.6387 99.2798 18.0276 99.1394C18.4322 98.9918 18.817 98.7948 19.1731 98.5528C19.906 98.0671 20.5824 97.4583 21.2613 96.8426L22.2828 95.902C22.6252 95.5839 22.984 95.2692 23.3513 94.9614C23.5336 94.8066 23.7228 94.6578 23.9138 94.509C24.1047 94.3602 24.2982 94.2132 24.4994 94.0729C24.9077 93.7779 25.3398 93.5174 25.7914 93.2939C26.0311 93.1759 26.2817 93.0811 26.5396 93.0109C26.8129 92.9355 27.0963 92.9034 27.3796 92.916C27.6671 92.9318 27.949 93.0023 28.21 93.1238C28.4548 93.24 28.6821 93.3897 28.8856 93.5684C29.0924 93.739 29.2776 93.9343 29.4369 94.1499C29.4789 94.2055 29.5166 94.267 29.5542 94.3269C29.5919 94.3867 29.6244 94.4526 29.6535 94.521C29.7173 94.6589 29.7623 94.8047 29.7871 94.9545C29.8358 95.2616 29.8048 95.576 29.6972 95.8678C29.6476 96.0097 29.5845 96.1466 29.5089 96.2765C29.472 96.3415 29.4327 96.4048 29.389 96.4672C29.3676 96.4988 29.3462 96.5305 29.3222 96.5621L29.2845 96.61C29.2688 96.63 29.2519 96.6491 29.234 96.6673C29.1801 96.7129 29.1177 96.7474 29.0505 96.7689C28.9832 96.7904 28.9123 96.7985 28.8419 96.7927C28.7715 96.7868 28.703 96.7672 28.6402 96.7349C28.5773 96.7026 28.5215 96.6583 28.4759 96.6044C28.4302 96.5506 28.3957 96.4883 28.3741 96.4211C28.3526 96.3539 28.3445 96.2831 28.3503 96.2128C28.3562 96.1425 28.3758 96.074 28.4082 96.0113C28.4405 95.9486 28.4849 95.8928 28.5388 95.8472L28.532 95.8558Z" fill="#231F20"/>
<path d="M40.5842 96.5407C40.5661 96.5225 40.5489 96.5034 40.5328 96.4834L40.4951 96.4355C40.4712 96.4047 40.448 96.3739 40.4266 96.3423C40.3821 96.2807 40.341 96.2175 40.3042 96.1533C40.2269 96.0244 40.1621 95.8884 40.1107 95.7471C39.9984 95.4569 39.963 95.1427 40.008 94.8348C40.0308 94.6849 40.0737 94.5388 40.1355 94.4004C40.1643 94.3335 40.1966 94.2681 40.2323 94.2046C40.2691 94.1438 40.3059 94.0823 40.347 94.0258C40.5035 93.8083 40.6858 93.6105 40.8898 93.4367C41.0908 93.2549 41.3165 93.1023 41.5602 92.9835C41.8193 92.858 42.1 92.7834 42.3873 92.7637C42.6703 92.7486 42.9539 92.7775 43.228 92.8492C43.487 92.9161 43.739 93.0075 43.9806 93.122C44.4352 93.3392 44.8708 93.594 45.2829 93.8839C45.4866 94.0216 45.6827 94.1661 45.8753 94.3114C46.068 94.4568 46.2589 94.603 46.443 94.7552C46.8145 95.0554 47.1733 95.3649 47.5243 95.6787L48.556 96.604C49.2409 97.2085 49.9259 97.8071 50.6682 98.2834C51.0275 98.5204 51.4149 98.712 51.8214 98.8537C52.2121 98.989 52.6287 99.0326 53.0389 98.9811C53.4534 98.9176 53.8456 98.7522 54.1802 98.4997C54.2658 98.4373 54.3514 98.3697 54.4371 98.2979C54.5154 98.2318 54.5878 98.1592 54.6537 98.0807C54.7751 97.9443 54.8597 97.7792 54.8994 97.601C54.9301 97.4375 54.9085 97.2685 54.8377 97.1179C54.7601 96.9564 54.6472 96.8144 54.5073 96.7023C54.3647 96.586 54.2006 96.4989 54.0244 96.4458C53.9452 96.4219 53.8631 96.4092 53.7804 96.4081C53.7199 96.401 53.6589 96.4166 53.6091 96.4517C53.511 96.5548 53.3881 96.6311 53.2521 96.6734C53.1161 96.7157 52.9716 96.7226 52.8322 96.6934C52.6928 96.6643 52.5632 96.6 52.4557 96.5067C52.3482 96.4135 52.2663 96.2943 52.2178 96.1605C52.1694 96.0268 52.156 95.8829 52.1789 95.7425C52.2017 95.6021 52.2602 95.4699 52.3486 95.3584C52.4371 95.2469 52.5526 95.1598 52.6842 95.1054C52.8158 95.0511 52.9591 95.0312 53.1006 95.0477L53.5912 95.1075C53.7741 95.1315 53.9524 95.1825 54.1203 95.2589C54.263 95.3238 54.3994 95.4016 54.5278 95.4915C54.7682 95.6586 54.9826 95.8603 55.1639 96.09C55.3499 96.3199 55.4895 96.5836 55.5749 96.8665C55.6635 97.1618 55.6679 97.476 55.5878 97.7737C55.548 97.9171 55.4905 98.055 55.4165 98.1842C55.345 98.3051 55.2631 98.4195 55.1717 98.5262C55.0836 98.6264 54.9892 98.721 54.8891 98.8093C54.7958 98.8948 54.6973 98.9803 54.5955 99.0547C54.1806 99.3815 53.6999 99.6149 53.1862 99.7387C52.6643 99.8565 52.1234 99.8629 51.5988 99.7576C51.0923 99.659 50.6 99.4982 50.1331 99.2787C49.6796 99.0689 49.242 98.8263 48.824 98.5527C48.4145 98.286 48.0192 97.998 47.6399 97.6899C47.4515 97.5377 47.2658 97.3829 47.0851 97.2239L46.8146 96.9862L46.5577 96.7468C46.2101 96.4278 45.8728 96.1037 45.5363 95.7796L45.0371 95.2957C44.871 95.1366 44.7032 94.981 44.5371 94.8254C44.2168 94.5219 43.8733 94.2437 43.5097 93.9933C43.1536 93.7642 42.7811 93.5923 42.4147 93.5795C42.0482 93.5667 41.6844 93.7163 41.3573 93.9857C41.1964 94.1104 41.0555 94.2589 40.9395 94.426C40.8888 94.503 40.8474 94.5856 40.8162 94.6723C40.8021 94.7129 40.7904 94.7543 40.7811 94.7963C40.7739 94.837 40.7697 94.8781 40.7683 94.9194C40.7645 95.0839 40.8124 95.2453 40.9052 95.3812C40.9544 95.4534 41.0119 95.5197 41.0765 95.5787C41.109 95.6092 41.1433 95.6377 41.1792 95.6642C41.1981 95.677 41.216 95.6882 41.234 95.6984L41.2597 95.7121C41.2657 95.7121 41.2794 95.7223 41.2743 95.7121C41.3288 95.757 41.374 95.8122 41.4073 95.8746C41.4405 95.9369 41.4611 96.0052 41.4679 96.0755C41.4747 96.1459 41.4675 96.2168 41.4469 96.2844C41.4262 96.3519 41.3924 96.4148 41.3475 96.4693C41.3025 96.5238 41.2472 96.5689 41.1848 96.6021C41.1223 96.6353 41.0539 96.6559 40.9835 96.6626C40.9131 96.6694 40.8421 96.6623 40.7745 96.6417C40.7068 96.621 40.6439 96.5873 40.5893 96.5424L40.5842 96.5407Z" fill="#231F20"/>
<path d="M32.3129 14.429L29.711 83.9486C29.7001 84.2373 29.7484 84.5252 29.8529 84.7947C29.9574 85.0641 30.1159 85.3094 30.3188 85.5154C30.5216 85.7214 30.7645 85.8839 31.0325 85.9928C31.3004 86.1017 31.5879 86.1548 31.8771 86.1487L38.2239 86.0171C38.5077 86.0111 38.7873 85.9484 39.0464 85.8327C39.3055 85.717 39.5387 85.5506 39.7324 85.3433C39.926 85.1361 40.0761 84.8922 40.1737 84.6261C40.2714 84.3599 40.3147 84.0769 40.301 83.7938L36.8592 14.5881C36.8425 14.2418 36.7412 13.9049 36.564 13.6068C36.3868 13.3086 36.1393 13.0584 35.8429 12.8779L35.5398 12.6932C35.1429 12.4519 34.6777 12.3471 34.2155 12.395C33.7533 12.4429 33.3196 12.6407 32.9807 12.9583C32.5725 13.3413 32.3325 13.87 32.3129 14.429Z" fill="black"/>
<path d="M35.1475 5.67791L40.0028 5.64456" stroke="#010101" stroke-width="3.43772" stroke-miterlimit="10"/>
<path d="M38.9522 5.17851L38.9582 6.01993C38.9586 6.14498 38.9864 6.26843 39.0397 6.38158C39.093 6.49473 39.1705 6.59483 39.2668 6.67481C39.363 6.75479 39.4757 6.81272 39.5967 6.84451C39.7178 6.87629 39.8444 6.88117 39.9676 6.85878C40.5481 6.75874 41.1663 6.4509 41.1577 5.59751C41.1517 4.76293 40.5498 4.44398 39.9745 4.3294C39.8495 4.30471 39.7206 4.30818 39.5971 4.33956C39.4737 4.37094 39.3588 4.42944 39.2609 4.51079C39.1629 4.59215 39.0844 4.6943 39.031 4.80982C38.9776 4.92533 38.9507 5.05129 38.9522 5.17851Z" fill="#010101"/>
<path d="M35.1724 9.27018L40.0277 9.23683" stroke="#010101" stroke-width="3.43772" stroke-miterlimit="10"/>
<path d="M38.9773 8.77086L38.9833 9.61227C38.9837 9.73732 39.0115 9.86077 39.0648 9.97392C39.1181 10.0871 39.1956 10.1872 39.2919 10.2672C39.3881 10.3471 39.5008 10.4051 39.6219 10.4369C39.743 10.4686 39.8696 10.4735 39.9928 10.4511C40.5733 10.3511 41.1914 10.0441 41.1829 9.18985C41.1769 8.35528 40.5741 8.03633 39.9996 7.9226C39.8747 7.89792 39.7459 7.90138 39.6225 7.93271C39.4991 7.96404 39.3843 8.02246 39.2863 8.10372C39.1884 8.18498 39.1099 8.28703 39.0564 8.40244C39.003 8.51785 38.9759 8.64371 38.9773 8.77086Z" fill="#010101"/>
<path d="M34.4443 4.20625L29.5898 4.2396" stroke="#010101" stroke-width="3.43772" stroke-miterlimit="10"/>
<path d="M30.6339 3.75912L30.6399 4.60053C30.6407 4.72556 30.6143 4.84927 30.5624 4.96305C30.5105 5.07683 30.4343 5.17794 30.3393 5.25933C30.2443 5.34073 30.1326 5.40046 30.0121 5.43436C29.8916 5.46826 29.7652 5.47552 29.6416 5.45563C29.0602 5.36328 28.4429 5.064 28.4344 4.20975C28.4284 3.37603 29.0268 3.04853 29.5996 2.92711C29.724 2.90068 29.8528 2.90227 29.9765 2.93176C30.1002 2.96124 30.2157 3.01788 30.3148 3.09756C30.4138 3.17724 30.4939 3.27795 30.5491 3.39239C30.6043 3.50682 30.6332 3.6321 30.6339 3.75912Z" fill="#010101"/>
<path d="M34.5165 7.7028L29.6611 7.73615" stroke="#010101" stroke-width="3.43772" stroke-miterlimit="10"/>
<path d="M30.7057 7.2564L30.7117 8.09782C30.7126 8.22289 30.6863 8.34668 30.6344 8.46053C30.5826 8.57438 30.5064 8.67555 30.4114 8.75697C30.3163 8.8384 30.2046 8.89812 30.084 8.93196C29.9635 8.96581 29.837 8.97296 29.7134 8.95292C29.132 8.86057 28.5147 8.56214 28.5061 7.70789C28.5002 6.87332 29.0986 6.54667 29.6714 6.42525C29.7957 6.39884 29.9244 6.40041 30.048 6.42985C30.1717 6.45928 30.2872 6.51584 30.3862 6.59543C30.4853 6.67501 30.5653 6.77562 30.6206 6.88995C30.6758 7.00427 30.7049 7.12946 30.7057 7.2564Z" fill="#010101"/>
<path d="M33.1142 5.16148L32.0688 122.278" stroke="#BCBEC0" stroke-width="1.23044" stroke-miterlimit="10" stroke-linecap="round"/>
<path d="M33.8247 5.15715L34.0944 122.263" stroke="#BCBEC0" stroke-width="1.23044" stroke-miterlimit="10" stroke-linecap="round"/>
<path d="M35.6877 5.14435L38.4352 122.233" stroke="#BCBEC0" stroke-width="1.23044" stroke-miterlimit="10" stroke-linecap="round"/>
<path d="M34.8008 5.15033L36.4095 122.248" stroke="#BCBEC0" stroke-width="1.23044" stroke-miterlimit="10" stroke-linecap="round"/>
<path d="M32.6046 119.987L38.4548 119.865C39.7442 119.839 40.7048 120.932 40.3752 122.06C39.1457 126.267 37.1714 135.559 40.936 142.904C41.531 144.065 40.6329 145.248 39.2168 145.278L36.3058 145.484L32.7912 145.494C31.4333 145.523 30.4393 144.389 30.8939 143.23C32.3203 139.597 34.7108 132.062 30.8177 122.354C30.3605 121.221 31.2707 120.015 32.6046 119.987Z" fill="black"/>
<path d="M32.395 1.46743C31.7956 1.4717 31.3402 1.91294 31.4078 2.41659C31.5103 3.22862 31.5618 4.04627 31.5619 4.86474C31.567 5.89661 31.4631 6.92614 31.252 7.93625C31.1432 8.46128 31.615 8.93843 32.2417 8.93415H32.5653C33.1253 8.93415 33.5731 8.53738 33.5602 8.06195L33.4001 2.29858C33.3924 1.8317 32.9412 1.46315 32.395 1.46743Z" fill="#9B3521"/>
<path d="M36.5036 1.44603C37.103 1.44176 37.5644 1.87358 37.5036 2.38151C37.4127 3.19485 37.3724 4.01304 37.3829 4.83137C37.3924 5.86326 37.5103 6.89132 37.7348 7.8986C37.8513 8.42193 37.3855 8.90506 36.7588 8.90933H36.4351C35.8752 8.90933 35.4223 8.52625 35.4283 8.05423L35.5088 2.28659C35.5156 1.82484 35.9608 1.44945 36.5036 1.44603Z" fill="#9B3521"/>
<path d="M36.1571 1.18699C36.1032 0.645709 35.4807 0.229276 34.735 0.234407H34.5055H34.2769C33.5304 0.239537 32.9148 0.661956 32.8677 1.2058L31.6887 14.8019C31.6365 15.4004 32.288 15.8998 33.1125 15.8947L36.1151 15.8827C36.9371 15.8767 37.5835 15.3697 37.5235 14.7711L36.1571 1.18699Z" fill="#C54F27"/>
<path d="M8.51343 132.102C8.51343 132.102 26.761 123.167 29.2431 143.337C29.2431 143.337 35.0368 144.398 36.8391 142.867C38.6413 141.337 38.8708 144.767 36.7415 145.282C34.3014 145.874 12.5666 145.772 8.51343 132.102Z" fill="black"/>
<path d="M1.49976 101.9C1.49976 101.9 27.1712 108.253 35.8323 109.75C45.4505 111.413 75.1503 115.125 75.1503 115.125" stroke="white" stroke-width="3.08706" stroke-miterlimit="10"/>
<path d="M3.04361 102.789C3.04361 102.789 2.46398 100.3 3.42119 100.34C4.37839 100.38 16.4538 103.801 17.4384 103.997C18.423 104.193 38.359 108.587 61.6623 110.546L74.8928 111.325C74.8928 111.325 75.1625 112.859 75.5246 112.678C75.8868 112.497 78.5281 112.689 77.5169 113.704C76.5058 114.719 74.1941 114.474 74.1941 114.474L73.9125 115.604L83.4845 117.076L83.6557 112.67C83.6557 112.67 89.2808 113.594 89.9871 113.169C90.6934 112.744 91.5042 111.39 89.3321 111.056C87.16 110.722 70.504 109.213 70.504 109.213L59.5699 108.172C59.5699 108.172 41.8685 106.626 40.2358 106.481C38.603 106.337 18.4599 103.346 16.8477 102.675C15.2355 102.005 2.95115 99.4711 2.56501 99.0915C2.17888 98.7118 1.36637 101.164 0.478519 101.393C-0.409332 101.623 1.565 102.668 3.04361 102.789Z" fill="#603913"/>
<path d="M83.6573 112.673L83.4861 117.078L73.9141 115.607L74.1957 114.476C74.1957 114.476 76.5074 114.725 77.5186 113.707C78.5297 112.688 75.8918 112.497 75.5262 112.681C75.1607 112.865 74.8944 111.328 74.8944 111.328L83.6573 112.673Z" fill="black"/>
<path d="M73.4115 111.238L73.6778 109.506L68.2351 108.999L67.9397 110.916L73.4115 111.238Z" fill="black"/>
<path d="M67.9396 110.916L60.1689 110.502L60.4969 108.262L68.2349 108.999L67.9396 110.916Z" fill="#DBDDDC"/>
</g>
<defs>
<clipPath id="clip0">
<rect width="90.4829" height="145.274" fill="white" transform="translate(0.258301 0.234329)"/>
</clipPath>
</defs>
</svg>
