<svg width="92" height="146" viewBox="0 0 92 146" fill="none" xmlns="http://www.w3.org/2000/svg">
<g clip-path="url(#clip0)">
<path d="M59.4787 106.725C59.5034 105.909 59.262 105.107 58.791 104.439C58.3199 103.771 57.6446 103.275 56.8666 103.023C54.1756 102.163 50.941 99.5372 50.7261 91.9208C50.53 85.1536 52.2698 82.8764 53.9607 82.2368C55.5164 81.6502 56.4239 80.0358 56.2955 78.3803C56.102 75.8894 56.2313 72.5656 57.5566 69.3505C59.6971 64.1592 55.6362 49.1804 35.4896 48.563C35.374 48.563 35.255 48.563 35.1403 48.563C15.0031 49.4575 11.1503 64.4901 13.361 69.6515C14.7309 72.8487 14.9021 76.1699 14.7463 78.6634C14.641 80.3205 15.5699 81.9213 17.1341 82.4874C18.8336 83.1022 20.6042 85.3545 20.5066 92.1235C20.3962 99.7433 17.1975 102.413 14.5194 103.311C13.7449 103.573 13.0767 104.08 12.6154 104.754C12.154 105.429 11.9244 106.235 11.9611 107.051C12.2437 113.163 6.44824 122.261 9.51677 133.08C13.2146 146.117 35.9879 145.848 35.9879 145.848C35.9879 145.848 58.7621 145.804 62.281 132.718C65.1971 121.857 59.2758 112.841 59.4787 106.725Z" fill="#06A429"/>
<path d="M49.5346 77.7493C48.6584 77.7501 47.784 77.6679 46.9233 77.5038C42.8993 76.7266 39.8068 73.6627 38.6561 69.3094C37.3718 64.4542 38.7922 59.2458 42.1887 56.347C44.5945 54.2947 47.5954 53.1634 50.6399 53.1634C53.8788 53.1634 56.9474 54.4375 59.2796 56.7549C61.5724 59.0294 62.9397 61.5015 63.3438 64.1027C63.8301 67.2367 62.9483 70.2201 60.795 72.7307C58.1374 75.8236 53.8223 77.7493 49.5346 77.7493Z" fill="white"/>
<path d="M50.6401 53.8894C53.5734 53.8894 56.4809 55.0011 58.7678 57.2671C61.0734 59.5553 62.2712 61.9316 62.6205 64.2113C63.7601 71.5481 56.5991 77.0207 49.5348 77.0207C48.706 77.0228 47.8789 76.9458 47.0647 76.7907C38.1554 75.0702 36.3531 62.2848 42.6631 56.8994C44.9971 54.9079 47.831 53.8894 50.6427 53.8894H50.6401ZM50.6427 52.4358C47.4252 52.4358 44.2556 53.6278 41.7188 55.7929C39.8703 57.3705 38.5509 59.5604 37.9045 62.1266C37.3082 64.5479 37.3255 67.0795 37.955 69.4924C38.5235 71.6439 39.5698 73.5644 40.9799 75.0506C42.5361 76.6872 44.5679 77.7939 46.7882 78.2144C47.6943 78.3873 48.6149 78.4732 49.5374 78.471C54.0314 78.471 58.558 76.4495 61.3525 73.1959C62.4134 71.9772 63.2137 70.5548 63.7044 69.0161C64.2124 67.3894 64.3366 65.6674 64.0675 63.9847C63.6394 61.227 62.2027 58.619 59.7977 56.2324C57.3285 53.7825 54.0776 52.4332 50.6452 52.4332L50.6427 52.4358Z" fill="#C55027"/>
<path d="M46.187 74.9249C40.3171 72.546 41.0234 64.5029 47.2607 63.1074C52.8078 61.8666 57.4945 68.2158 53.6948 72.6674C51.7881 74.9009 49.1194 76.1135 46.187 74.9249Z" fill="#010101"/>
<path d="M45.818 69.5933C43.7469 69.9969 42.1981 67.3948 43.7024 65.8651C44.901 64.6397 47.0697 64.7107 47.5201 66.3781C47.8942 67.7677 47.4285 69.2795 45.818 69.5933Z" fill="white"/>
<path d="M19.4616 78.7591C18.5221 78.7601 17.5847 78.6719 16.6619 78.4957C14.4392 78.0841 12.4057 76.9758 10.8562 75.3319C9.43496 73.838 8.3793 71.8961 7.8031 69.7156C6.42637 64.508 7.94865 58.9225 11.5891 55.8151C14.1687 53.6132 17.3879 52.4007 20.6525 52.4007C24.1252 52.4007 27.4163 53.7689 29.9163 56.2487C32.3761 58.6891 33.8427 61.3408 34.276 64.1292C34.7965 67.4872 33.8521 70.6844 31.5448 73.3737C28.6929 76.6949 24.0635 78.7591 19.4616 78.7591Z" fill="white"/>
<path d="M20.6525 53.125C23.8109 53.125 26.9411 54.3221 29.4035 56.7609C31.8864 59.2244 33.1758 61.7829 33.5568 64.2387C34.7828 72.1364 27.0687 78.0331 19.4624 78.0331C18.5689 78.0346 17.6773 77.9507 16.7997 77.7826C7.21061 75.9305 5.2671 62.1634 12.0617 56.3649C14.5737 54.2212 17.6268 53.125 20.6525 53.125ZM20.6525 51.6713C17.215 51.6713 13.828 52.9463 11.1165 55.2627C9.14727 56.9456 7.7363 59.2817 7.04537 62.0248C6.4076 64.6134 6.42643 67.32 7.10016 69.8994C7.70719 72.198 8.82364 74.2493 10.3296 75.8313C11.9887 77.5782 14.1556 78.7601 16.5241 79.2098C17.4925 79.3952 18.4764 79.488 19.4624 79.4868C24.2698 79.4868 29.1107 77.3251 32.0961 73.8432C33.229 72.5424 34.0836 71.024 34.6073 69.3813C35.1482 67.6466 35.28 65.8104 34.9926 64.0164C34.5354 61.0706 32.9994 58.2872 30.4266 55.7305C27.7887 53.1139 24.3169 51.6722 20.6508 51.6722L20.6525 51.6713Z" fill="#C55027"/>
<path d="M20.2159 75.6867C13.8956 73.1215 14.6559 64.4644 21.3717 62.962C27.3444 61.6289 32.3906 68.4629 28.2998 73.2583C26.2467 75.6611 23.3734 76.966 20.2159 75.6867Z" fill="#010101"/>
<path d="M19.8194 69.9456C17.5891 70.3809 15.9213 67.5787 17.5403 65.9267C18.8365 64.6081 21.1662 64.6842 21.6499 66.4799C22.054 67.9798 21.5506 69.6079 19.8194 69.9456Z" fill="white"/>
<path d="M41.0378 103.514C39.7998 103.999 38.3965 104.51 35.8554 104.711C33.1704 104.923 31.6601 104.488 30.4572 103.847C29.8365 103.518 29.4375 102.881 29.4341 102.418C29.4341 101.955 29.8134 101.477 30.2671 101.574C31.5514 101.842 32.8185 102.709 35.3982 102.613C38.5506 102.496 39.6679 101.774 41.0917 101.501C41.5464 101.416 41.9333 101.871 41.9368 102.334C41.9402 102.793 41.6114 103.289 41.0378 103.514Z" fill="black"/>
<path d="M29.1045 96.1963C29.0993 96.2049 29.113 96.1963 29.1199 96.1963C29.1267 96.1963 29.1362 96.1878 29.1447 96.1818C29.1533 96.1758 29.1807 96.1595 29.1986 96.1476C29.2338 96.1219 29.2671 96.0929 29.3005 96.0621C29.3651 96.0021 29.4225 95.935 29.4718 95.862C29.5628 95.725 29.6084 95.5628 29.6019 95.3985C29.5998 95.3572 29.5953 95.3161 29.5882 95.2754C29.578 95.2336 29.5654 95.1925 29.5505 95.1522C29.5186 95.0658 29.476 94.9836 29.4238 94.9077C29.3054 94.742 29.1625 94.5953 29 94.4724C28.6695 94.2074 28.3022 94.0586 27.9375 94.0808C27.5728 94.103 27.2012 94.2758 26.8485 94.5084C26.487 94.7632 26.1463 95.0463 25.8296 95.3549C25.6652 95.5114 25.5008 95.6696 25.3365 95.832L24.8442 96.322C24.5145 96.6512 24.1789 96.9796 23.8356 97.3037L23.5787 97.5457L23.3116 97.7877C23.1335 97.9493 22.9494 98.1066 22.7637 98.2614C22.3883 98.5742 21.9971 98.8676 21.5916 99.1404C21.1774 99.4198 20.7433 99.6684 20.2927 99.8844C19.83 100.11 19.3411 100.277 18.8373 100.383C18.314 100.494 17.7731 100.494 17.2499 100.383C16.7345 100.266 16.2506 100.039 15.8312 99.7176C15.7285 99.6412 15.6295 99.5608 15.5341 99.4765C15.4327 99.3897 15.3372 99.2963 15.2482 99.1969C15.1546 99.0907 15.0709 98.9762 14.9982 98.8548C14.9224 98.7271 14.8631 98.5904 14.8218 98.4478C14.7375 98.1509 14.7375 97.8365 14.8218 97.5397C14.904 97.2559 15.04 96.9906 15.2225 96.7581C15.4007 96.5266 15.6122 96.3226 15.8501 96.1527C15.9774 96.0611 16.113 95.9815 16.255 95.915C16.4214 95.8365 16.5986 95.7832 16.7807 95.7568L17.2662 95.6901C17.4075 95.6708 17.5513 95.6879 17.6841 95.7399C17.8169 95.7918 17.9341 95.8768 18.0247 95.9868C18.1153 96.0968 18.1762 96.2281 18.2016 96.3682C18.227 96.5083 18.2161 96.6526 18.1699 96.7873C18.1237 96.9221 18.0438 97.0428 17.9377 97.1379C17.8316 97.2331 17.7029 97.2995 17.5638 97.331C17.4248 97.3624 17.28 97.3578 17.1432 97.3175C17.0064 97.2773 16.8822 97.2027 16.7824 97.101C16.7323 97.0668 16.6714 97.0522 16.6112 97.06C16.5283 97.0614 16.446 97.0752 16.3672 97.101C16.1917 97.157 16.0291 97.2471 15.8886 97.3661C15.7496 97.4792 15.6384 97.6225 15.5633 97.7851C15.4947 97.937 15.4755 98.1066 15.5085 98.2699C15.5504 98.4477 15.6374 98.6117 15.761 98.7462C15.8279 98.8236 15.9012 98.8951 15.9802 98.96C16.0658 99.0301 16.1514 99.0968 16.2371 99.1584C16.575 99.4062 16.9692 99.5663 17.3843 99.6244C17.7953 99.6697 18.2112 99.6203 18.6001 99.4799C19.0047 99.3323 19.3895 99.1353 19.7457 98.8933C20.4785 98.4076 21.1549 97.7988 21.8339 97.1831L22.8553 96.2425C23.1977 95.9244 23.5565 95.6097 23.9238 95.3019C24.1061 95.1471 24.2954 94.9983 24.4863 94.8495C24.6772 94.7007 24.8707 94.5537 25.0719 94.4134C25.4802 94.1185 25.9123 93.8579 26.3639 93.6344C26.6036 93.5164 26.8542 93.4216 27.1122 93.3514C27.3854 93.276 27.6688 93.244 27.9521 93.2565C28.2396 93.2723 28.5215 93.3428 28.7826 93.4643C29.0273 93.5805 29.2546 93.7302 29.4581 93.9089C29.665 94.0795 29.8501 94.2748 30.0094 94.4904C30.0514 94.546 30.0891 94.6075 30.1267 94.6674C30.1644 94.7273 30.1969 94.7931 30.2261 94.8615C30.2898 94.9994 30.3348 95.1452 30.3596 95.295C30.4083 95.6021 30.3773 95.9165 30.2697 96.2083C30.2201 96.3502 30.157 96.4871 30.0814 96.617C30.0445 96.682 30.0052 96.7453 29.9615 96.8077C29.9401 96.8394 29.9187 96.871 29.8947 96.9026L29.857 96.9505C29.8413 96.9705 29.8244 96.9897 29.8065 97.0078C29.7526 97.0534 29.6902 97.0879 29.623 97.1094C29.5557 97.131 29.4848 97.139 29.4144 97.1332C29.344 97.1274 29.2755 97.1077 29.2127 97.0754C29.1499 97.0431 29.094 96.9988 29.0484 96.945C29.0027 96.8911 28.9682 96.8288 28.9466 96.7616C28.9251 96.6944 28.917 96.6237 28.9228 96.5533C28.9287 96.483 28.9483 96.4146 28.9807 96.3518C29.013 96.2891 29.0574 96.2334 29.1113 96.1878L29.1045 96.1963Z" fill="#231F20"/>
<path d="M41.1569 96.8812C41.1388 96.863 41.1217 96.8439 41.1056 96.8239L41.0679 96.776C41.0439 96.7452 41.0208 96.7144 40.9994 96.6828C40.9549 96.6212 40.9138 96.558 40.877 96.4938C40.7997 96.3649 40.7349 96.2289 40.6835 96.0877C40.5711 95.7974 40.5357 95.4832 40.5807 95.1753C40.6036 95.0254 40.6465 94.8793 40.7083 94.7409C40.7371 94.674 40.7694 94.6086 40.805 94.5451C40.8419 94.4844 40.8787 94.4228 40.9198 94.3664C41.0763 94.1488 41.2585 93.951 41.4626 93.7772C41.6636 93.5954 41.8893 93.4428 42.133 93.324C42.392 93.1985 42.6728 93.1239 42.96 93.1042C43.243 93.0891 43.5267 93.118 43.8008 93.1897C44.0597 93.2566 44.3117 93.348 44.5534 93.4625C45.008 93.6797 45.4436 93.9346 45.8556 94.2244C46.0594 94.3621 46.2554 94.5066 46.4481 94.652C46.6407 94.7973 46.8316 94.9435 47.0157 95.0958C47.3873 95.3959 47.746 95.7054 48.0971 96.0193L49.1288 96.9445C49.8137 97.549 50.4986 98.1476 51.2409 98.6239C51.6002 98.8609 51.9876 99.0525 52.3942 99.1942C52.7849 99.3295 53.2014 99.3731 53.6117 99.3216C54.0262 99.2581 54.4184 99.0927 54.753 98.8402C54.8386 98.7778 54.9242 98.7103 55.0098 98.6384C55.0881 98.5724 55.1606 98.4997 55.2264 98.4212C55.3478 98.2848 55.4324 98.1197 55.4721 97.9415C55.5028 97.778 55.4812 97.609 55.4105 97.4584C55.3329 97.2969 55.2199 97.1549 55.08 97.0428C54.9374 96.9266 54.7734 96.8394 54.5971 96.7863C54.518 96.7624 54.4358 96.7497 54.3531 96.7487C54.2926 96.7416 54.2316 96.7571 54.1819 96.7923C54.0837 96.8953 53.9609 96.9716 53.8249 97.0139C53.6889 97.0562 53.5444 97.0631 53.405 97.034C53.2656 97.0048 53.136 96.9405 53.0284 96.8472C52.9209 96.754 52.839 96.6348 52.7906 96.501C52.7421 96.3673 52.7287 96.2234 52.7516 96.083C52.7745 95.9426 52.8329 95.8104 52.9214 95.6989C53.0098 95.5874 53.1253 95.5003 53.2569 95.4459C53.3885 95.3916 53.5319 95.3717 53.6733 95.3882L54.1639 95.4481C54.3468 95.472 54.5252 95.523 54.693 95.5994C54.8357 95.6643 54.9721 95.7421 55.1006 95.832C55.341 95.9991 55.5553 96.2008 55.7367 96.4306C55.9227 96.6604 56.0622 96.9241 56.1477 97.207C56.2362 97.5023 56.2407 97.8165 56.1605 98.1142C56.1208 98.2577 56.0633 98.3955 55.9893 98.5247C55.9177 98.6456 55.8358 98.76 55.7444 98.8667C55.6563 98.9669 55.562 99.0615 55.4619 99.1498C55.3685 99.2353 55.2701 99.3208 55.1682 99.3952C54.7534 99.7221 54.2726 99.9554 53.7589 100.079C53.237 100.197 52.6961 100.203 52.1716 100.098C51.6651 99.9995 51.1727 99.8387 50.7058 99.6192C50.2523 99.4094 49.8148 99.1668 49.3967 98.8932C48.9872 98.6265 48.592 98.3385 48.2127 98.0304C48.0243 97.8782 47.8385 97.7235 47.6579 97.5644L47.3873 97.3267L47.1305 97.0873C46.7828 96.7683 46.4455 96.4442 46.109 96.1202L45.6099 95.6362C45.4438 95.4771 45.276 95.3215 45.1099 95.1659C44.7895 94.8624 44.446 94.5842 44.0825 94.3339C43.7263 94.1047 43.3539 93.9328 42.9874 93.92C42.621 93.9072 42.2571 94.0568 41.9301 94.3262C41.7692 94.4509 41.6283 94.5994 41.5122 94.7665C41.4615 94.8435 41.4201 94.9261 41.389 95.0128C41.3749 95.0534 41.3632 95.0948 41.3539 95.1368C41.3467 95.1775 41.3424 95.2186 41.341 95.2599C41.3372 95.4244 41.3851 95.5858 41.478 95.7217C41.5272 95.7939 41.5847 95.8602 41.6492 95.9192C41.6818 95.9497 41.7161 95.9782 41.752 96.0047C41.7708 96.0175 41.7888 96.0287 41.8068 96.0389L41.8325 96.0526C41.8384 96.0526 41.8521 96.0629 41.847 96.0526C41.9016 96.0975 41.9468 96.1527 41.98 96.2151C42.0132 96.2775 42.0338 96.3457 42.0406 96.4161C42.0474 96.4864 42.0403 96.5573 42.0196 96.6249C41.999 96.6924 41.9652 96.7553 41.9202 96.8098C41.8752 96.8643 41.82 96.9094 41.7575 96.9426C41.6951 96.9758 41.6267 96.9964 41.5563 97.0032C41.4859 97.01 41.4149 97.0028 41.3472 96.9822C41.2796 96.9616 41.2167 96.9278 41.1621 96.8829L41.1569 96.8812Z" fill="#231F20"/>
<path d="M32.8854 14.7695L30.2835 84.2891C30.2726 84.5778 30.3209 84.8657 30.4254 85.1352C30.5299 85.4046 30.6884 85.6498 30.8913 85.8559C31.0941 86.0619 31.337 86.2244 31.605 86.3333C31.8729 86.4422 32.1604 86.4953 32.4496 86.4892L38.7964 86.3575C39.0802 86.3516 39.3598 86.2889 39.6189 86.1732C39.878 86.0575 40.1113 85.8911 40.3049 85.6838C40.4985 85.4766 40.6486 85.2327 40.7462 84.9665C40.8439 84.7004 40.8872 84.4174 40.8735 84.1343L37.4317 14.9286C37.415 14.5823 37.3137 14.2454 37.1365 13.9472C36.9594 13.6491 36.7118 13.3989 36.4154 13.2184L36.1123 13.0337C35.7154 12.7923 35.2502 12.6876 34.788 12.7355C34.3258 12.7833 33.8921 12.9812 33.5532 13.2988C33.145 13.6818 32.905 14.2105 32.8854 14.7695Z" fill="black"/>
<path d="M35.7202 6.01844L40.5756 5.98509" stroke="#010101" stroke-width="3.43772" stroke-miterlimit="10"/>
<path d="M39.5252 5.51907L39.5312 6.36049C39.5316 6.48554 39.5594 6.60899 39.6127 6.72214C39.666 6.83529 39.7435 6.93539 39.8398 7.01537C39.936 7.09536 40.0486 7.15328 40.1697 7.18507C40.2908 7.21686 40.4174 7.22173 40.5406 7.19934C41.1211 7.0993 41.7393 6.79146 41.7307 5.93807C41.7247 5.10349 41.1228 4.78454 40.5475 4.66996C40.4225 4.64527 40.2936 4.64874 40.1701 4.68012C40.0467 4.7115 39.9318 4.77 39.8339 4.85135C39.7359 4.93271 39.6574 5.03487 39.604 5.15038C39.5506 5.26589 39.5237 5.39185 39.5252 5.51907Z" fill="#010101"/>
<path d="M35.7449 9.61071L40.6002 9.57736" stroke="#010101" stroke-width="3.43772" stroke-miterlimit="10"/>
<path d="M39.5499 9.11134L39.5558 9.95276C39.5562 10.0778 39.584 10.2013 39.6373 10.3144C39.6906 10.4276 39.7682 10.5277 39.8644 10.6076C39.9607 10.6876 40.0733 10.7455 40.1944 10.7773C40.3155 10.8091 40.4421 10.814 40.5653 10.7916C41.1458 10.6916 41.7639 10.3846 41.7554 9.53034C41.7494 8.69576 41.1466 8.37681 40.5721 8.26308C40.4472 8.23841 40.3184 8.24186 40.195 8.27319C40.0716 8.30453 39.9568 8.36295 39.8588 8.44421C39.7609 8.52547 39.6824 8.62752 39.6289 8.74292C39.5755 8.85833 39.5485 8.98419 39.5499 9.11134Z" fill="#010101"/>
<path d="M35.0176 4.54681L30.1631 4.58016" stroke="#010101" stroke-width="3.43772" stroke-miterlimit="10"/>
<path d="M31.2064 4.0996L31.2124 4.94102C31.2132 5.06605 31.1868 5.18976 31.1349 5.30354C31.083 5.41731 31.0068 5.51842 30.9118 5.59982C30.8168 5.68121 30.7051 5.74094 30.5846 5.77484C30.4641 5.80875 30.3377 5.81601 30.2141 5.79612C29.6327 5.70377 29.0154 5.40448 29.0069 4.55024C29.0009 3.71652 29.5994 3.38901 30.1721 3.26759C30.2965 3.24117 30.4253 3.24276 30.549 3.27224C30.6727 3.30173 30.7882 3.35837 30.8873 3.43804C30.9863 3.51772 31.0664 3.61844 31.1216 3.73287C31.1768 3.8473 31.2057 3.97258 31.2064 4.0996Z" fill="#010101"/>
<path d="M35.0895 8.04332L30.2341 8.07667" stroke="#010101" stroke-width="3.43772" stroke-miterlimit="10"/>
<path d="M31.2784 7.59696L31.2844 8.43838C31.2854 8.56345 31.259 8.68724 31.2072 8.80109C31.1553 8.91494 31.0792 9.01611 30.9841 9.09753C30.8891 9.17896 30.7774 9.23868 30.6568 9.27253C30.5362 9.30637 30.4097 9.31352 30.2861 9.29348C29.7048 9.20113 29.0875 8.9027 29.0789 8.04845C29.0729 7.21388 29.6714 6.88723 30.2442 6.76581C30.3685 6.7394 30.4971 6.74097 30.6208 6.77041C30.7444 6.79984 30.86 6.85641 30.959 6.93599C31.058 7.01557 31.1381 7.11618 31.1933 7.23051C31.2486 7.34484 31.2776 7.47002 31.2784 7.59696Z" fill="#010101"/>
<path d="M33.687 5.50197L32.6416 122.618" stroke="#BCBEC0" stroke-width="1.23044" stroke-miterlimit="10" stroke-linecap="round"/>
<path d="M34.3975 5.4977L34.6672 122.603" stroke="#BCBEC0" stroke-width="1.23044" stroke-miterlimit="10" stroke-linecap="round"/>
<path d="M36.2605 5.48486L39.008 122.574" stroke="#BCBEC0" stroke-width="1.23044" stroke-miterlimit="10" stroke-linecap="round"/>
<path d="M35.3735 5.49086L36.9823 122.588" stroke="#BCBEC0" stroke-width="1.23044" stroke-miterlimit="10" stroke-linecap="round"/>
<path d="M33.1776 120.327L39.0278 120.206C40.3172 120.179 41.2778 121.273 40.9482 122.401C39.7187 126.607 37.7444 135.899 41.509 143.245C42.104 144.405 41.2059 145.589 39.7898 145.618L36.8788 145.825L33.3642 145.835C32.0063 145.863 31.0123 144.729 31.4669 143.571C32.8933 139.937 35.2838 132.403 31.3907 122.694C30.9335 121.562 31.8437 120.355 33.1776 120.327Z" fill="black"/>
<path d="M32.9677 1.80794C32.3684 1.81222 31.9129 2.25345 31.9806 2.7571C32.0831 3.56913 32.1346 4.38679 32.1347 5.20525C32.1398 6.23712 32.0359 7.26666 31.8247 8.27677C31.716 8.8018 32.1877 9.27894 32.8145 9.27467H33.1381C33.698 9.27467 34.1458 8.8779 34.133 8.40247L33.9729 2.6391C33.9652 2.17222 33.514 1.80367 32.9677 1.80794Z" fill="#9B3521"/>
<path d="M37.0764 1.78656C37.6757 1.78229 38.1372 2.21411 38.0764 2.72204C37.9854 3.53538 37.9451 4.35357 37.9557 5.1719C37.9651 6.20379 38.0831 7.23185 38.3076 8.23914C38.424 8.76246 37.9583 9.24559 37.3315 9.24986H37.0079C36.448 9.24986 35.995 8.86678 36.001 8.39476L36.0815 2.62712C36.0884 2.16537 36.5336 1.78998 37.0764 1.78656Z" fill="#9B3521"/>
<path d="M36.7296 1.52747C36.6757 0.986194 36.0532 0.569761 35.3075 0.574891H35.078H34.8494C34.1029 0.580022 33.4873 1.00244 33.4402 1.54628L32.2612 15.1424C32.209 15.7409 32.8606 16.2403 33.6851 16.2352L36.6876 16.2232C37.5096 16.2172 38.156 15.7101 38.0961 15.1116L36.7296 1.52747Z" fill="#C54F27"/>
<path d="M9.08643 132.442C9.08643 132.442 27.334 123.507 29.8161 143.677C29.8161 143.677 35.6098 144.739 37.4121 143.208C39.2143 141.677 39.4438 145.107 37.3144 145.623C34.8744 146.214 13.1395 146.113 9.08643 132.442Z" fill="black"/>
<path d="M2.07239 102.241C2.07239 102.241 27.7439 108.594 36.4049 110.091C46.0232 111.754 75.7229 115.465 75.7229 115.465" stroke="white" stroke-width="3.08706" stroke-miterlimit="10"/>
<path d="M3.61624 103.129C3.61624 103.129 3.03662 100.64 3.99382 100.68C4.95102 100.721 17.0265 104.142 18.0111 104.338C18.9957 104.534 38.9317 108.928 62.235 110.887L75.4654 111.666C75.4654 111.666 75.7351 113.2 76.0973 113.019C76.4594 112.837 79.1007 113.03 78.0896 114.045C77.0784 115.06 74.7668 114.814 74.7668 114.814L74.4851 115.945L84.0571 117.416L84.2283 113.011C84.2283 113.011 89.8534 113.934 90.5597 113.509C91.2661 113.084 92.0769 111.731 89.9048 111.397C87.7327 111.062 71.0767 109.554 71.0767 109.554L60.1425 108.512C60.1425 108.512 42.4411 106.966 40.8084 106.822C39.1757 106.677 19.0325 103.686 17.4203 103.016C15.8081 102.345 3.52378 99.8117 3.13764 99.432C2.75151 99.0523 1.939 101.505 1.05115 101.734C0.1633 101.963 2.13763 103.009 3.61624 103.129Z" fill="#603913"/>
<path d="M84.2301 113.013L84.0588 117.419L74.4868 115.947L74.7685 114.817C74.7685 114.817 77.0802 115.066 78.0913 114.047C79.1024 113.029 76.4646 112.837 76.099 113.021C75.7334 113.205 75.4671 111.668 75.4671 111.668L84.2301 113.013Z" fill="black"/>
<path d="M73.9842 111.579L74.2505 109.846L68.8078 109.34L68.5125 111.256L73.9842 111.579Z" fill="black"/>
<path d="M68.5126 111.256L60.7419 110.842L61.0699 108.603L68.8079 109.34L68.5126 111.256Z" fill="#DBDDDC"/>
</g>
<defs>
<clipPath id="clip0">
<rect width="90.4829" height="145.274" fill="white" transform="translate(0.831055 0.57486)"/>
</clipPath>
</defs>
</svg>
