<svg width="91" height="146" viewBox="0 0 91 146" fill="none" xmlns="http://www.w3.org/2000/svg">
<g clip-path="url(#clip0)">
<path d="M58.906 106.385C58.9306 105.568 58.6893 104.766 58.2182 104.098C57.7472 103.431 57.0718 102.934 56.2938 102.683C53.6028 101.823 50.3682 99.1966 50.1533 91.5802C49.9573 84.813 51.697 82.5359 53.3879 81.8963C54.9436 81.3097 55.8512 79.6952 55.7227 78.0398C55.5292 75.5489 55.6585 72.2251 56.9839 69.0099C59.1243 63.8186 55.0635 48.8398 34.9169 48.2225C34.8013 48.2225 34.6823 48.2225 34.5676 48.2225C14.4304 49.1169 10.5776 64.1495 12.7882 69.3109C14.1581 72.5081 14.3293 75.8293 14.1735 78.3228C14.0682 79.98 14.9972 81.5807 16.5614 82.1468C18.2609 82.7616 20.0315 85.0139 19.9338 91.7829C19.8234 99.4027 16.6247 102.072 13.9466 102.97C13.1721 103.233 12.504 103.739 12.0426 104.414C11.5812 105.088 11.3517 105.894 11.3884 106.71C11.6709 112.823 5.87549 121.92 8.94401 132.74C12.6418 145.776 35.4152 145.508 35.4152 145.508C35.4152 145.508 58.1894 145.463 61.7082 132.377C64.6244 121.516 58.7031 112.5 58.906 106.385Z" fill="#FF0000"/>
<path d="M48.9616 77.4087C48.0854 77.4095 47.211 77.3274 46.3503 77.1633C42.3263 76.386 39.2338 73.3222 38.0831 68.9689C36.7988 64.1136 38.2192 58.9052 41.6157 56.0064C44.0215 53.9542 47.0224 52.8229 50.0669 52.8229C53.3058 52.8229 56.3744 54.097 58.7066 56.4143C60.9994 58.6889 62.3667 61.161 62.7708 63.7622C63.2571 66.8961 62.3753 69.8796 60.222 72.3901C57.5644 75.483 53.2493 77.4087 48.9616 77.4087Z" fill="white"/>
<path d="M50.0669 53.5489C53.0001 53.5489 55.9077 54.6605 58.1945 56.9265C60.5002 59.2148 61.698 61.5911 62.0473 63.8708C63.1869 71.2075 56.0258 76.6802 48.9615 76.6802C48.1327 76.6823 47.3056 76.6053 46.4915 76.4502C37.5821 74.7297 35.7799 61.9443 42.0899 56.5588C44.4238 54.5673 47.2578 53.5489 50.0694 53.5489H50.0669ZM50.0694 52.0952C46.8519 52.0952 43.6824 53.2872 41.1455 55.4523C39.2971 57.03 37.9777 59.2199 37.3313 61.7861C36.7349 64.2074 36.7523 66.739 37.3818 69.1519C37.9503 71.3033 38.9965 73.2239 40.4067 74.71C41.9629 76.3466 43.9947 77.4534 46.2149 77.8739C47.121 78.0468 48.0416 78.1327 48.9641 78.1304C53.4582 78.1304 57.9847 76.109 60.7793 72.8553C61.8401 71.6366 62.6405 70.2143 63.1312 68.6756C63.6391 67.0489 63.7634 65.3268 63.4942 63.6442C63.0661 60.8865 61.6295 58.2784 59.2245 55.8919C56.7553 53.442 53.5044 52.0927 50.072 52.0927L50.0694 52.0952Z" fill="#C55027"/>
<path d="M45.6141 74.5844C39.7442 72.2055 40.4506 64.1624 46.6878 62.7669C52.2349 61.5262 56.9216 67.8753 53.1219 72.3269C51.2152 74.5604 48.5465 75.773 45.6141 74.5844Z" fill="#010101"/>
<path d="M45.2449 69.2527C43.1738 69.6563 41.625 67.0543 43.1293 65.5245C44.3279 64.2992 46.4966 64.3701 46.947 66.0376C47.3211 67.4271 46.8554 68.9389 45.2449 69.2527Z" fill="white"/>
<path d="M18.8886 78.4186C17.9491 78.4195 17.0117 78.3313 16.0889 78.1552C13.8662 77.7435 11.8327 76.6353 10.2832 74.9914C8.86197 73.4975 7.80631 71.5556 7.2301 69.3751C5.85338 64.1675 7.37565 58.582 11.0161 55.4746C13.5957 53.2727 16.815 52.0602 20.0795 52.0602C23.5522 52.0602 26.8433 53.4283 29.3433 55.9081C31.8031 58.3486 33.2697 61.0002 33.703 63.7887C34.2235 67.1467 33.2792 70.3439 30.9718 73.0332C28.1199 76.3544 23.4905 78.4186 18.8886 78.4186Z" fill="white"/>
<path d="M20.0794 52.7844C23.2378 52.7844 26.368 53.9816 28.8303 56.4203C31.3132 58.8839 32.6026 61.4423 32.9836 63.8982C34.2097 71.7958 26.4956 77.6926 18.8893 77.6926C17.9958 77.694 17.1042 77.6101 16.2266 77.4421C6.63749 75.5899 4.69398 61.8228 11.4886 56.0244C14.0006 53.8807 17.0537 52.7844 20.0794 52.7844ZM20.0794 51.3308C16.6419 51.3308 13.2548 52.6057 10.5433 54.9222C8.57415 56.605 7.16318 58.9411 6.47225 61.6843C5.83448 64.2729 5.85331 66.9794 6.52704 69.5589C7.13407 71.8574 8.25052 73.9088 9.75653 75.4907C11.4156 77.2377 13.5825 78.4196 15.9509 78.8692C16.9194 79.0546 17.9033 79.1474 18.8893 79.1463C23.6967 79.1463 28.5375 76.9846 31.523 73.5026C32.6559 72.2019 33.5105 70.6835 34.0342 69.0407C34.5751 67.306 34.7069 65.4699 34.4194 63.6758C33.9622 60.73 32.4263 57.9467 29.8535 55.3899C27.2156 52.7733 23.7438 51.3316 20.0777 51.3316L20.0794 51.3308Z" fill="#C55027"/>
<path d="M19.6429 75.3462C13.3226 72.7809 14.0829 64.1239 20.7987 62.6215C26.7714 61.2884 31.8176 68.1223 27.7269 72.9177C25.6737 75.3205 22.8004 76.6254 19.6429 75.3462Z" fill="#010101"/>
<path d="M19.2464 69.6051C17.0161 70.0403 15.3483 67.2382 16.9673 65.5861C18.2635 64.2676 20.5932 64.3437 21.0769 66.1394C21.481 67.6392 20.9776 69.2673 19.2464 69.6051Z" fill="white"/>
<path d="M40.465 103.174C39.227 103.659 37.8237 104.169 35.2826 104.371C32.5977 104.583 31.0874 104.148 29.8845 103.506C29.2637 103.177 28.8648 102.54 28.8613 102.077C28.8613 101.615 29.2406 101.137 29.6944 101.233C30.9786 101.501 32.2458 102.368 34.8254 102.272C37.9779 102.155 39.0952 101.434 40.519 101.161C40.9736 101.075 41.3606 101.53 41.364 101.994C41.3674 102.453 41.0387 102.949 40.465 103.174Z" fill="black"/>
<path d="M28.5318 95.8558C28.5267 95.8644 28.5404 95.8558 28.5473 95.8558C28.5541 95.8558 28.5635 95.8473 28.5721 95.8413C28.5806 95.8353 28.608 95.8191 28.626 95.8071C28.6611 95.7814 28.6945 95.7524 28.7279 95.7216C28.7924 95.6616 28.8499 95.5945 28.8991 95.5215C28.9902 95.3845 29.0357 95.2223 29.0293 95.058C29.0272 95.0167 29.0226 94.9756 29.0156 94.9349C29.0054 94.8932 28.9928 94.8521 28.9779 94.8118C28.946 94.7253 28.9034 94.6432 28.8512 94.5672C28.7328 94.4016 28.5899 94.2548 28.4274 94.1319C28.0969 93.8669 27.7296 93.7181 27.3649 93.7403C27.0001 93.7625 26.6286 93.9353 26.2758 94.1679C25.9143 94.4227 25.5736 94.7058 25.257 95.0144C25.0926 95.1709 24.9282 95.3291 24.7638 95.4916L24.2715 95.9815C23.9419 96.3107 23.6063 96.6391 23.263 96.9632L23.0061 97.2052L22.739 97.4472C22.5609 97.6088 22.3768 97.7661 22.191 97.9209C21.8157 98.2338 21.4244 98.5272 21.0189 98.7999C20.6048 99.0793 20.1707 99.3279 19.7201 99.5439C19.2574 99.7693 18.7685 99.9367 18.2646 100.042C17.7414 100.154 17.2005 100.154 16.6773 100.042C16.1619 99.9253 15.678 99.6984 15.2586 99.3771C15.1559 99.3007 15.0568 99.2204 14.9615 99.136C14.8601 99.0492 14.7646 98.9558 14.6755 98.8564C14.5819 98.7502 14.4983 98.6357 14.4255 98.5143C14.3497 98.3867 14.2905 98.2499 14.2492 98.1073C14.1648 97.8105 14.1648 97.496 14.2492 97.1992C14.3313 96.9154 14.4674 96.6501 14.6499 96.4176C14.8281 96.1861 15.0396 95.9821 15.2774 95.8122C15.4048 95.7206 15.5403 95.641 15.6824 95.5745C15.8488 95.496 16.026 95.4427 16.2081 95.4163L16.6935 95.3496C16.8348 95.3303 16.9787 95.3475 17.1115 95.3994C17.2442 95.4513 17.3615 95.5363 17.4521 95.6463C17.5427 95.7563 17.6036 95.8876 17.629 96.0277C17.6544 96.1678 17.6435 96.3121 17.5973 96.4469C17.5511 96.5816 17.4712 96.7023 17.3651 96.7974C17.259 96.8926 17.1303 96.959 16.9912 96.9905C16.8521 97.0219 16.7073 97.0173 16.5706 96.977C16.4338 96.9368 16.3096 96.8623 16.2098 96.7605C16.1597 96.7263 16.0988 96.7117 16.0386 96.7195C15.9556 96.7209 15.8734 96.7347 15.7946 96.7605C15.6191 96.8165 15.4565 96.9066 15.316 97.0256C15.177 97.1387 15.0657 97.282 14.9906 97.4446C14.922 97.5965 14.9029 97.7661 14.9358 97.9294C14.9778 98.1072 15.0647 98.2712 15.1884 98.4057C15.2552 98.4831 15.3286 98.5546 15.4076 98.6195C15.4932 98.6896 15.5788 98.7563 15.6644 98.8179C16.0023 99.0657 16.3965 99.2258 16.8117 99.2839C17.2227 99.3292 17.6386 99.2798 18.0275 99.1394C18.4321 98.9918 18.8168 98.7948 19.173 98.5528C19.9059 98.0671 20.5823 97.4583 21.2612 96.8426L22.2826 95.902C22.6251 95.5839 22.9838 95.2692 23.3511 94.9614C23.5335 94.8066 23.7227 94.6578 23.9136 94.509C24.1046 94.3603 24.2981 94.2132 24.4993 94.073C24.9076 93.778 25.3397 93.5174 25.7912 93.294C26.031 93.1759 26.2816 93.0811 26.5395 93.0109C26.8128 92.9355 27.0962 92.9035 27.3794 92.916C27.667 92.9318 27.9489 93.0023 28.2099 93.1238C28.4546 93.24 28.682 93.3897 28.8854 93.5684C29.0923 93.739 29.2775 93.9343 29.4368 94.1499C29.4788 94.2055 29.5164 94.2671 29.5541 94.3269C29.5918 94.3868 29.6243 94.4526 29.6534 94.521C29.7172 94.6589 29.7621 94.8047 29.787 94.9546C29.8357 95.2616 29.8047 95.5761 29.6971 95.8678C29.6475 96.0097 29.5844 96.1466 29.5087 96.2765C29.4719 96.3415 29.4325 96.4048 29.3889 96.4672C29.3675 96.4989 29.3461 96.5305 29.3221 96.5621L29.2844 96.61C29.2687 96.63 29.2518 96.6492 29.2339 96.6673C29.18 96.7129 29.1176 96.7474 29.0503 96.769C28.9831 96.7905 28.9122 96.7985 28.8418 96.7927C28.7714 96.7869 28.7028 96.7672 28.64 96.7349C28.5772 96.7026 28.5214 96.6583 28.4758 96.6045C28.4301 96.5506 28.3955 96.4883 28.374 96.4211C28.3524 96.3539 28.3444 96.2832 28.3502 96.2129C28.3561 96.1425 28.3757 96.0741 28.408 96.0113C28.4404 95.9486 28.4848 95.8929 28.5387 95.8473L28.5318 95.8558Z" fill="#231F20"/>
<path d="M40.5838 96.5406C40.5657 96.5224 40.5485 96.5033 40.5324 96.4833L40.4948 96.4355C40.4708 96.4047 40.4477 96.3739 40.4263 96.3422C40.3818 96.2807 40.3407 96.2174 40.3038 96.1533C40.2265 96.0243 40.1618 95.8883 40.1103 95.7471C39.998 95.4569 39.9626 95.1426 40.0076 94.8347C40.0304 94.6849 40.0733 94.5387 40.1352 94.4003C40.164 94.3334 40.1963 94.268 40.2319 94.2045C40.2687 94.1438 40.3056 94.0822 40.3467 94.0258C40.5031 93.8083 40.6854 93.6104 40.8895 93.4366C41.0905 93.2548 41.3162 93.1022 41.5598 92.9834C41.8189 92.858 42.0997 92.7834 42.3869 92.7637C42.6699 92.7486 42.9535 92.7774 43.2277 92.8492C43.4866 92.9161 43.7386 93.0074 43.9803 93.122C44.4349 93.3391 44.8705 93.594 45.2825 93.8838C45.4863 94.0215 45.6823 94.166 45.875 94.3114C46.0676 94.4568 46.2585 94.603 46.4426 94.7552C46.8142 95.0553 47.1729 95.3649 47.524 95.6787L48.5556 96.6039C49.2406 97.2085 49.9255 97.807 50.6678 98.2833C51.0271 98.5204 51.4145 98.712 51.8211 98.8537C52.2117 98.9889 52.6283 99.0325 53.0386 98.9811C53.4531 98.9175 53.8452 98.7521 54.1798 98.4997C54.2655 98.4372 54.3511 98.3697 54.4367 98.2979C54.515 98.2318 54.5875 98.1591 54.6533 98.0807C54.7747 97.9442 54.8593 97.7791 54.899 97.6009C54.9297 97.4374 54.9081 97.2684 54.8374 97.1178C54.7597 96.9563 54.6468 96.8143 54.5069 96.7022C54.3643 96.586 54.2002 96.4988 54.024 96.4457C53.9448 96.4218 53.8627 96.4091 53.78 96.4081C53.7195 96.401 53.6585 96.4165 53.6088 96.4517C53.5106 96.5548 53.3877 96.6311 53.2518 96.6734C53.1158 96.7157 52.9712 96.7226 52.8318 96.6934C52.6924 96.6642 52.5628 96.5999 52.4553 96.5067C52.3478 96.4134 52.2659 96.2942 52.2175 96.1605C52.169 96.0267 52.1556 95.8828 52.1785 95.7424C52.2014 95.602 52.2598 95.4698 52.3483 95.3583C52.4367 95.2468 52.5522 95.1598 52.6838 95.1054C52.8154 95.051 52.9587 95.0311 53.1002 95.0476L53.5908 95.1075C53.7737 95.1314 53.952 95.1824 54.1199 95.2588C54.2626 95.3237 54.399 95.4016 54.5274 95.4914C54.7678 95.6586 54.9822 95.8603 55.1636 96.09C55.3495 96.3198 55.4891 96.5835 55.5745 96.8664C55.6631 97.1618 55.6676 97.4759 55.5874 97.7737C55.5477 97.9171 55.4902 98.055 55.4162 98.1841C55.3446 98.305 55.2627 98.4195 55.1713 98.5262C55.0832 98.6264 54.9888 98.7209 54.8888 98.8092C54.7954 98.8947 54.697 98.9802 54.5951 99.0546C54.1802 99.3815 53.6995 99.6149 53.1858 99.7387C52.6639 99.8564 52.123 99.8628 51.5985 99.7575C51.092 99.659 50.5996 99.4981 50.1327 99.2786C49.6792 99.0689 49.2417 98.8262 48.8236 98.5527C48.4141 98.2859 48.0189 97.9979 47.6395 97.6899C47.4512 97.5377 47.2654 97.3829 47.0847 97.2238L46.8142 96.9861L46.5573 96.7467C46.2097 96.4278 45.8724 96.1037 45.5359 95.7796L45.0368 95.2956C44.8707 95.1366 44.7029 94.9809 44.5368 94.8253C44.2164 94.5218 43.8729 94.2436 43.5094 93.9933C43.1532 93.7641 42.7808 93.5923 42.4143 93.5794C42.0479 93.5666 41.684 93.7162 41.3569 93.9856C41.1961 94.1103 41.0552 94.2588 40.9391 94.426C40.8884 94.5029 40.847 94.5856 40.8158 94.6722C40.8018 94.7129 40.79 94.7543 40.7807 94.7962C40.7736 94.8369 40.7693 94.8781 40.7679 94.9194C40.7641 95.0838 40.812 95.2453 40.9049 95.3811C40.9541 95.4534 41.0115 95.5197 41.0761 95.5786C41.1087 95.6091 41.143 95.6377 41.1789 95.6642C41.1977 95.677 41.2157 95.6881 41.2336 95.6984L41.2593 95.712C41.2653 95.712 41.279 95.7223 41.2739 95.712C41.3285 95.7569 41.3737 95.8122 41.4069 95.8745C41.4401 95.9369 41.4607 96.0052 41.4675 96.0755C41.4743 96.1458 41.4672 96.2168 41.4465 96.2843C41.4258 96.3519 41.3921 96.4147 41.3471 96.4692C41.3021 96.5237 41.2468 96.5689 41.1844 96.6021C41.122 96.6352 41.0536 96.6558 40.9832 96.6626C40.9128 96.6694 40.8417 96.6623 40.7741 96.6416C40.7064 96.621 40.6435 96.5873 40.5889 96.5423L40.5838 96.5406Z" fill="#231F20"/>
<path d="M32.3124 14.4289L29.7105 83.9485C29.6996 84.2372 29.7479 84.5251 29.8524 84.7946C29.9569 85.064 30.1154 85.3093 30.3183 85.5153C30.5211 85.7213 30.764 85.8838 31.032 85.9927C31.2999 86.1016 31.5874 86.1547 31.8766 86.1486L38.2234 86.017C38.5072 86.011 38.7868 85.9483 39.0459 85.8326C39.305 85.7169 39.5383 85.5505 39.7319 85.3432C39.9255 85.136 40.0756 84.8921 40.1732 84.626C40.2709 84.3598 40.3142 84.0768 40.3005 83.7937L36.8587 14.588C36.842 14.2417 36.7407 13.9048 36.5635 13.6066C36.3864 13.3085 36.1388 13.0583 35.8424 12.8778L35.5393 12.6931C35.1424 12.4517 34.6772 12.347 34.215 12.3949C33.7528 12.4427 33.3191 12.6406 32.9802 12.9582C32.572 13.3412 32.332 13.8699 32.3124 14.4289Z" fill="black"/>
<path d="M35.1471 5.67785L40.0025 5.6445" stroke="#010101" stroke-width="3.43772" stroke-miterlimit="10"/>
<path d="M38.9521 5.17853L38.9581 6.01995C38.9584 6.145 38.9863 6.26845 39.0396 6.3816C39.0929 6.49475 39.1704 6.59484 39.2666 6.67483C39.3629 6.75481 39.4755 6.81274 39.5966 6.84452C39.7177 6.87631 39.8443 6.88118 39.9675 6.8588C40.548 6.75875 41.1662 6.45092 41.1576 5.59753C41.1516 4.76295 40.5497 4.444 39.9744 4.32941C39.8494 4.30472 39.7205 4.30819 39.597 4.33957C39.4736 4.37096 39.3587 4.42945 39.2607 4.51081C39.1628 4.59216 39.0843 4.69432 39.0309 4.80983C38.9775 4.92535 38.9506 5.05131 38.9521 5.17853Z" fill="#010101"/>
<path d="M35.172 9.27013L40.0274 9.23679" stroke="#010101" stroke-width="3.43772" stroke-miterlimit="10"/>
<path d="M38.977 8.77081L38.983 9.61223C38.9833 9.73728 39.0111 9.86073 39.0645 9.97388C39.1178 10.087 39.1953 10.1871 39.2915 10.2671C39.3878 10.3471 39.5004 10.405 39.6215 10.4368C39.7426 10.4686 39.8692 10.4735 39.9924 10.4511C40.5729 10.351 41.191 10.0441 41.1825 9.18981C41.1765 8.35523 40.5737 8.03628 39.9993 7.92255C39.8744 7.89788 39.7455 7.90133 39.6221 7.93266C39.4987 7.964 39.3839 8.02242 39.286 8.10368C39.188 8.18494 39.1095 8.28698 39.056 8.40239C39.0026 8.5178 38.9756 8.64366 38.977 8.77081Z" fill="#010101"/>
<path d="M34.4443 4.20627L29.5898 4.23962" stroke="#010101" stroke-width="3.43772" stroke-miterlimit="10"/>
<path d="M30.6334 3.75903L30.6394 4.60044C30.6402 4.72547 30.6138 4.84918 30.5619 4.96296C30.51 5.07674 30.4338 5.17784 30.3388 5.25924C30.2438 5.34064 30.1321 5.40037 30.0116 5.43427C29.8911 5.46817 29.7647 5.47543 29.6411 5.45554C29.0597 5.36319 28.4424 5.06391 28.4339 4.20966C28.4279 3.37594 29.0264 3.04844 29.5991 2.92701C29.7235 2.90059 29.8523 2.90218 29.976 2.93167C30.0997 2.96115 30.2153 3.01779 30.3143 3.09747C30.4133 3.17715 30.4934 3.27786 30.5486 3.39229C30.6038 3.50673 30.6327 3.63201 30.6334 3.75903Z" fill="#010101"/>
<path d="M34.5162 7.70277L29.6609 7.73612" stroke="#010101" stroke-width="3.43772" stroke-miterlimit="10"/>
<path d="M30.7054 7.25643L30.7114 8.09785C30.7124 8.22292 30.686 8.34671 30.6342 8.46056C30.5823 8.57441 30.5062 8.67558 30.4111 8.757C30.3161 8.83843 30.2044 8.89815 30.0838 8.93199C29.9632 8.96584 29.8367 8.97299 29.7131 8.95295C29.1318 8.8606 28.5145 8.56217 28.5059 7.70792C28.4999 6.87335 29.0984 6.5467 29.6712 6.42528C29.7955 6.39887 29.9241 6.40044 30.0478 6.42988C30.1714 6.45931 30.287 6.51588 30.386 6.59546C30.485 6.67504 30.5651 6.77565 30.6203 6.88998C30.6756 7.0043 30.7046 7.12949 30.7054 7.25643Z" fill="#010101"/>
<path d="M33.1137 5.16139L32.0684 122.277" stroke="#BCBEC0" stroke-width="1.23044" stroke-miterlimit="10" stroke-linecap="round"/>
<path d="M33.8246 5.15717L34.0943 122.263" stroke="#BCBEC0" stroke-width="1.23044" stroke-miterlimit="10" stroke-linecap="round"/>
<path d="M35.6877 5.14438L38.4352 122.233" stroke="#BCBEC0" stroke-width="1.23044" stroke-miterlimit="10" stroke-linecap="round"/>
<path d="M34.8007 5.15034L36.4094 122.248" stroke="#BCBEC0" stroke-width="1.23044" stroke-miterlimit="10" stroke-linecap="round"/>
<path d="M32.6046 119.987L38.4548 119.865C39.7442 119.839 40.7048 120.932 40.3752 122.06C39.1457 126.267 37.1714 135.559 40.936 142.904C41.531 144.065 40.6329 145.248 39.2168 145.278L36.3058 145.484L32.7912 145.494C31.4333 145.523 30.4393 144.389 30.8939 143.23C32.3203 139.597 34.7108 132.062 30.8177 122.354C30.3605 121.221 31.2707 120.015 32.6046 119.987Z" fill="black"/>
<path d="M32.3948 1.46744C31.7955 1.47172 31.34 1.91295 31.4077 2.4166C31.5102 3.22863 31.5617 4.04629 31.5618 4.86475C31.5669 5.89663 31.463 6.92616 31.2519 7.93627C31.1431 8.4613 31.6149 8.93844 32.2416 8.93417H32.5652C33.1252 8.93417 33.5729 8.5374 33.5601 8.06197L33.4 2.2986C33.3923 1.83172 32.9411 1.46317 32.3948 1.46744Z" fill="#9B3521"/>
<path d="M36.5033 1.44598C37.1026 1.44171 37.5641 1.87353 37.5033 2.38146C37.4123 3.1948 37.372 4.01299 37.3826 4.83132C37.392 5.86322 37.5099 6.89127 37.7344 7.89856C37.8509 8.42188 37.3851 8.90501 36.7584 8.90929H36.4348C35.8748 8.90929 35.4219 8.5262 35.4279 8.05419L35.5084 2.28655C35.5152 1.82479 35.9605 1.44941 36.5033 1.44598Z" fill="#9B3521"/>
<path d="M36.1565 1.18686C36.1025 0.645587 35.4801 0.229154 34.7344 0.234285H34.5049H34.2763C33.5297 0.239415 32.9142 0.661834 32.8671 1.20568L31.6881 14.8017C31.6359 15.4003 32.2874 15.8997 33.1119 15.8946L36.1145 15.8826C36.9365 15.8766 37.5829 15.3695 37.5229 14.771L36.1565 1.18686Z" fill="#C54F27"/>
<path d="M8.51343 132.102C8.51343 132.102 26.761 123.167 29.2431 143.337C29.2431 143.337 35.0368 144.398 36.8391 142.867C38.6413 141.337 38.8708 144.767 36.7415 145.282C34.3014 145.874 12.5666 145.772 8.51343 132.102Z" fill="black"/>
<path d="M1.49976 101.9C1.49976 101.9 27.1712 108.253 35.8323 109.75C45.4505 111.413 75.1503 115.125 75.1503 115.125" stroke="white" stroke-width="3.08706" stroke-miterlimit="10"/>
<path d="M3.04349 102.789C3.04349 102.789 2.46386 100.3 3.42106 100.34C4.37826 100.38 16.4537 103.801 17.4383 103.997C18.4229 104.193 38.3589 108.587 61.6622 110.546L74.8926 111.325C74.8926 111.325 75.1623 112.859 75.5245 112.678C75.8867 112.497 78.528 112.689 77.5168 113.704C76.5057 114.719 74.194 114.474 74.194 114.474L73.9123 115.604L83.4843 117.076L83.6556 112.67C83.6556 112.67 89.2806 113.594 89.987 113.169C90.6933 112.744 91.5041 111.39 89.332 111.056C87.1599 110.722 70.5039 109.213 70.5039 109.213L59.5697 108.172C59.5697 108.172 41.8684 106.626 40.2356 106.481C38.6029 106.337 18.4597 103.346 16.8476 102.675C15.2354 102.005 2.95102 99.4711 2.56489 99.0915C2.17876 98.7118 1.36625 101.164 0.478397 101.393C-0.409454 101.623 1.56488 102.668 3.04349 102.789Z" fill="#603913"/>
<path d="M83.6571 112.673L83.4858 117.078L73.9138 115.607L74.1955 114.476C74.1955 114.476 76.5072 114.725 77.5183 113.707C78.5294 112.688 75.8916 112.497 75.526 112.681C75.1604 112.864 74.8941 111.328 74.8941 111.328L83.6571 112.673Z" fill="black"/>
<path d="M73.4112 111.238L73.6775 109.506L68.2348 108.999L67.9395 110.916L73.4112 111.238Z" fill="black"/>
<path d="M67.9396 110.916L60.1689 110.502L60.4969 108.262L68.2349 109L67.9396 110.916Z" fill="#DBDDDC"/>
</g>
<defs>
<clipPath id="clip0">
<rect width="90.4829" height="145.274" fill="white" transform="translate(0.258179 0.234314)"/>
</clipPath>
</defs>
</svg>
