<svg width="91" height="146" viewBox="0 0 91 146" fill="none" xmlns="http://www.w3.org/2000/svg">
<g clip-path="url(#clip0)">
<path d="M58.906 106.288C58.9306 105.472 58.6893 104.67 58.2182 104.002C57.7472 103.335 57.0718 102.838 56.2938 102.587C53.6028 101.726 50.3682 99.1004 50.1533 91.484C49.9573 84.7167 51.697 82.4396 53.3879 81.8C54.9436 81.2134 55.8512 79.599 55.7227 77.9435C55.5292 75.4526 55.6585 72.1288 56.9839 68.9137C59.1243 63.7223 55.0635 48.7436 34.9169 48.1262C34.8013 48.1262 34.6823 48.1262 34.5676 48.1262C14.4304 49.0206 10.5776 64.0533 12.7882 69.2146C14.1581 72.4119 14.3293 75.7331 14.1735 78.2265C14.0682 79.8837 14.9972 81.4845 16.5614 82.0505C18.2609 82.6654 20.0315 84.9177 19.9338 91.6866C19.8234 99.3064 16.6247 101.976 13.9466 102.874C13.1721 103.136 12.504 103.643 12.0426 104.318C11.5812 104.992 11.3517 105.798 11.3884 106.614C11.6709 112.726 5.87549 121.824 8.94401 132.643C12.6418 145.68 35.4152 145.412 35.4152 145.412C35.4152 145.412 58.1894 145.367 61.7082 132.281C64.6244 121.42 58.7031 112.404 58.906 106.288Z" fill="#4200FF"/>
<path d="M48.9616 77.3125C48.0854 77.3133 47.211 77.2311 46.3503 77.067C42.3263 76.2898 39.2338 73.2259 38.0831 68.8726C36.7988 64.0174 38.2192 58.809 41.6157 55.9102C44.0215 53.8579 47.0224 52.7266 50.0669 52.7266C53.3058 52.7266 56.3744 54.0007 58.7066 56.3181C60.9994 58.5926 62.3667 61.0647 62.7708 63.6659C63.2571 66.7999 62.3753 69.7833 60.222 72.2939C57.5644 75.3868 53.2493 77.3125 48.9616 77.3125Z" fill="white"/>
<path d="M50.0669 53.4526C53.0001 53.4526 55.9077 54.5642 58.1945 56.8303C60.5002 59.1185 61.698 61.4948 62.0473 63.7745C63.1869 71.1113 56.0258 76.5839 48.9615 76.5839C48.1327 76.586 47.3056 76.509 46.4915 76.3539C37.5821 74.6334 35.7799 61.848 42.0899 56.4626C44.4238 54.471 47.2578 53.4526 50.0694 53.4526H50.0669ZM50.0694 51.9989C46.8519 51.9989 43.6824 53.191 41.1455 55.3561C39.2971 56.9337 37.9777 59.1236 37.3313 61.6898C36.7349 64.1111 36.7523 66.6427 37.3818 69.0556C37.9503 71.207 38.9965 73.1276 40.4067 74.6138C41.9629 76.2503 43.9947 77.3571 46.2149 77.7776C47.121 77.9505 48.0416 78.0364 48.9641 78.0341C53.4582 78.0341 57.9847 76.0127 60.7793 72.759C61.8401 71.5403 62.6405 70.118 63.1312 68.5793C63.6391 66.9526 63.7634 65.2306 63.4942 63.5479C63.0661 60.7902 61.6295 58.1822 59.2245 55.7956C56.7553 53.3457 53.5044 51.9964 50.072 51.9964L50.0694 51.9989Z" fill="#C55027"/>
<path d="M45.614 74.488C39.7441 72.1091 40.4504 64.0661 46.6877 62.6706C52.2348 61.4298 56.9215 67.7789 53.1218 72.2306C51.2151 74.4641 48.5464 75.6766 45.614 74.488Z" fill="#010101"/>
<path d="M45.245 69.1565C43.1739 69.5601 41.6251 66.958 43.1294 65.4283C44.3281 64.2029 46.4967 64.2739 46.9471 65.9413C47.3212 67.3309 46.8555 68.8427 45.245 69.1565Z" fill="white"/>
<path d="M18.8884 78.3223C17.9489 78.3232 17.0114 78.2351 16.0887 78.0589C13.866 77.6472 11.8324 76.539 10.283 74.8951C8.86172 73.4012 7.80606 71.4593 7.22986 69.2788C5.85313 64.0712 7.37541 58.4857 11.0159 55.3783C13.5955 53.1764 16.8147 51.9639 20.0793 51.9639C23.5519 51.9639 26.8431 53.3321 29.3431 55.8118C31.8029 58.2523 33.2695 60.9039 33.7027 63.6924C34.2233 67.0504 33.2789 70.2476 30.9715 72.9369C28.1196 76.2581 23.4903 78.3223 18.8884 78.3223Z" fill="white"/>
<path d="M20.0795 52.6881C23.2379 52.6881 26.3681 53.8853 28.8305 56.324C31.3134 58.7876 32.6028 61.346 32.9838 63.8019C34.2098 71.6995 26.4957 77.5963 18.8894 77.5963C17.9959 77.5977 17.1043 77.5138 16.2267 77.3458C6.63761 75.4936 4.6941 61.7265 11.4887 55.9281C14.0007 53.7844 17.0538 52.6881 20.0795 52.6881ZM20.0795 51.2345C16.642 51.2345 13.255 52.5094 10.5435 54.8259C8.57427 56.5087 7.1633 58.8448 6.47237 61.588C5.8346 64.1766 5.85344 66.8831 6.52716 69.4626C7.13419 71.7611 8.25064 73.8125 9.75665 75.3944C11.4157 77.1414 13.5827 78.3233 15.9511 78.7729C16.9195 78.9583 17.9034 79.0511 18.8894 79.05C23.6969 79.05 28.5377 76.8883 31.5231 73.4063C32.656 72.1056 33.5106 70.5872 34.0343 68.9444C34.5752 67.2097 34.707 65.3736 34.4196 63.5795C33.9624 60.6337 32.4264 57.8504 29.8536 55.2936C27.2157 52.677 23.7439 51.2353 20.0778 51.2353L20.0795 51.2345Z" fill="#C55027"/>
<path d="M19.6426 75.2499C13.3224 72.6847 14.0826 64.0276 20.7985 62.5252C26.7711 61.1921 31.8174 68.0261 27.7266 72.8215C25.6735 75.2243 22.8002 76.5292 19.6426 75.2499Z" fill="#010101"/>
<path d="M19.2462 69.5089C17.0158 69.9441 15.348 67.1419 16.967 65.4899C18.2633 64.1713 20.5929 64.2474 21.0767 66.0431C21.4808 67.543 20.9774 69.1711 19.2462 69.5089Z" fill="white"/>
<path d="M40.465 103.077C39.227 103.562 37.8237 104.073 35.2826 104.275C32.5977 104.487 31.0874 104.051 29.8845 103.41C29.2637 103.081 28.8648 102.444 28.8613 101.981C28.8613 101.519 29.2406 101.041 29.6944 101.137C30.9786 101.405 32.2458 102.272 34.8254 102.176C37.9779 102.059 39.0952 101.337 40.519 101.064C40.9736 100.979 41.3606 101.434 41.364 101.897C41.3674 102.357 41.0387 102.852 40.465 103.077Z" fill="black"/>
<path d="M28.5317 95.7595C28.5266 95.768 28.5403 95.7595 28.5471 95.7595C28.554 95.7595 28.5634 95.7509 28.572 95.7449C28.5805 95.7389 28.6079 95.7227 28.6259 95.7107C28.661 95.6851 28.6944 95.656 28.7278 95.6252C28.7923 95.5652 28.8497 95.4981 28.899 95.4251C28.9901 95.2881 29.0356 95.126 29.0292 94.9617C29.0271 94.9204 29.0225 94.8793 29.0155 94.8385C29.0053 94.7968 28.9927 94.7557 28.9778 94.7154C28.9459 94.6289 28.9033 94.5468 28.8511 94.4708C28.7326 94.3052 28.5898 94.1584 28.4273 94.0356C28.0968 93.7705 27.7295 93.6217 27.3648 93.6439C27 93.6662 26.6284 93.8389 26.2757 94.0715C25.9142 94.3263 25.5735 94.6094 25.2569 94.918C25.0925 95.0745 24.9281 95.2327 24.7637 95.3952L24.2714 95.8852C23.9418 96.2144 23.6062 96.5427 23.2628 96.8668L23.006 97.1088L22.7389 97.3508C22.5608 97.5124 22.3767 97.6698 22.1909 97.8245C21.8155 98.1374 21.4243 98.4308 21.0188 98.7036C20.6047 98.9829 20.1706 99.2316 19.72 99.4475C19.2572 99.6729 18.7684 99.8404 18.2645 99.946C17.7413 100.058 17.2004 100.058 16.6772 99.946C16.1618 99.8289 15.6779 99.602 15.2585 99.2808C15.1557 99.2044 15.0567 99.124 14.9614 99.0396C14.86 98.9528 14.7644 98.8594 14.6754 98.76C14.5818 98.6538 14.4981 98.5393 14.4254 98.418C14.3496 98.2903 14.2904 98.1535 14.2491 98.0109C14.1647 97.7141 14.1647 97.3997 14.2491 97.1028C14.3312 96.8191 14.4672 96.5537 14.6497 96.3213C14.828 96.0897 15.0395 95.8857 15.2773 95.7159C15.4046 95.6243 15.5402 95.5447 15.6823 95.4781C15.8487 95.3997 16.0259 95.3463 16.208 95.3199L16.6934 95.2532C16.8347 95.234 16.9786 95.2511 17.1113 95.303C17.2441 95.355 17.3614 95.44 17.4519 95.5499C17.5425 95.6599 17.6034 95.7912 17.6289 95.9313C17.6543 96.0715 17.6434 96.2158 17.5972 96.3505C17.551 96.4852 17.471 96.6059 17.3649 96.7011C17.2589 96.7962 17.1302 96.8627 16.9911 96.8941C16.852 96.9256 16.7072 96.9209 16.5704 96.8807C16.4337 96.8404 16.3095 96.7659 16.2097 96.6642C16.1596 96.63 16.0986 96.6154 16.0385 96.6231C15.9555 96.6245 15.8733 96.6383 15.7944 96.6642C15.619 96.7202 15.4563 96.8103 15.3158 96.9292C15.1769 97.0424 15.0656 97.1857 14.9905 97.3482C14.9219 97.5001 14.9028 97.6697 14.9357 97.8331C14.9776 98.0108 15.0646 98.1748 15.1883 98.3094C15.2551 98.3867 15.3284 98.4582 15.4075 98.5231C15.4931 98.5933 15.5787 98.66 15.6643 98.7215C16.0022 98.9693 16.3964 99.1294 16.8116 99.1875C17.2226 99.2329 17.6385 99.1834 18.0273 99.043C18.432 98.8954 18.8167 98.6984 19.1729 98.4564C19.9058 97.9708 20.5822 97.3619 21.2611 96.7462L22.2825 95.8056C22.625 95.4875 22.9837 95.1729 23.351 94.865C23.5334 94.7103 23.7226 94.5615 23.9135 94.4127C24.1045 94.2639 24.2979 94.1168 24.4991 93.9766C24.9074 93.6816 25.3396 93.4211 25.7911 93.1976C26.0309 93.0795 26.2815 92.9847 26.5394 92.9145C26.8127 92.8391 27.0961 92.8071 27.3793 92.8196C27.6669 92.8354 27.9487 92.906 28.2098 93.0274C28.4545 93.1437 28.6819 93.2933 28.8853 93.4721C29.0922 93.6427 29.2774 93.838 29.4367 94.0535C29.4786 94.1091 29.5163 94.1707 29.554 94.2305C29.5917 94.2904 29.6242 94.3562 29.6533 94.4247C29.7171 94.5625 29.762 94.7083 29.7869 94.8582C29.8355 95.1653 29.8046 95.4797 29.697 95.7714C29.6473 95.9134 29.5843 96.0502 29.5086 96.1802C29.4718 96.2452 29.4324 96.3084 29.3887 96.3709C29.3673 96.4025 29.3459 96.4341 29.322 96.4658L29.2843 96.5137C29.2685 96.5337 29.2517 96.5528 29.2338 96.571C29.1799 96.6165 29.1175 96.6511 29.0502 96.6726C28.9829 96.6941 28.9121 96.7022 28.8417 96.6963C28.7713 96.6905 28.7027 96.6709 28.6399 96.6386C28.5771 96.6063 28.5213 96.5619 28.4756 96.5081C28.43 96.4543 28.3954 96.392 28.3739 96.3248C28.3523 96.2576 28.3442 96.1868 28.3501 96.1165C28.3559 96.0462 28.3756 95.9777 28.4079 95.915C28.4403 95.8523 28.4847 95.7965 28.5386 95.7509L28.5317 95.7595Z" fill="#231F20"/>
<path d="M40.5842 96.4443C40.5661 96.4261 40.5489 96.407 40.5328 96.387L40.4951 96.3391C40.4712 96.3084 40.448 96.2776 40.4266 96.2459C40.3821 96.1844 40.341 96.1211 40.3042 96.057C40.2269 95.928 40.1621 95.792 40.1107 95.6508C39.9984 95.3606 39.963 95.0463 40.008 94.7384C40.0308 94.5886 40.0737 94.4424 40.1355 94.304C40.1643 94.2371 40.1966 94.1717 40.2323 94.1082C40.2691 94.0475 40.3059 93.9859 40.347 93.9295C40.5035 93.7119 40.6858 93.5141 40.8898 93.3403C41.0908 93.1585 41.3165 93.0059 41.5602 92.8871C41.8193 92.7617 42.1 92.687 42.3873 92.6674C42.6703 92.6523 42.9539 92.6811 43.228 92.7529C43.487 92.8198 43.739 92.9111 43.9806 93.0256C44.4352 93.2428 44.8708 93.4977 45.2829 93.7875C45.4866 93.9252 45.6827 94.0697 45.8753 94.2151C46.068 94.3604 46.2589 94.5067 46.443 94.6589C46.8145 94.959 47.1733 95.2686 47.5243 95.5824L48.556 96.5076C49.2409 97.1121 49.9259 97.7107 50.6682 98.187C51.0275 98.4241 51.4149 98.6156 51.8214 98.7574C52.2121 98.8926 52.6287 98.9362 53.0389 98.8848C53.4534 98.8212 53.8456 98.6558 54.1802 98.4033C54.2658 98.3409 54.3514 98.2734 54.4371 98.2015C54.5154 98.1355 54.5878 98.0628 54.6537 97.9843C54.7751 97.8479 54.8597 97.6828 54.8994 97.5046C54.9301 97.3411 54.9085 97.1721 54.8377 97.0215C54.7601 96.86 54.6472 96.718 54.5073 96.6059C54.3647 96.4897 54.2006 96.4025 54.0244 96.3494C53.9452 96.3255 53.8631 96.3128 53.7804 96.3118C53.7199 96.3047 53.6589 96.3202 53.6091 96.3554C53.511 96.4585 53.3881 96.5348 53.2521 96.5771C53.1161 96.6194 52.9716 96.6263 52.8322 96.5971C52.6928 96.5679 52.5632 96.5036 52.4557 96.4104C52.3482 96.3171 52.2663 96.1979 52.2178 96.0642C52.1694 95.9304 52.156 95.7865 52.1789 95.6461C52.2017 95.5057 52.2602 95.3735 52.3486 95.262C52.4371 95.1505 52.5526 95.0634 52.6842 95.0091C52.8158 94.9547 52.9591 94.9348 53.1006 94.9513L53.5912 95.0112C53.7741 95.0351 53.9524 95.0861 54.1203 95.1625C54.263 95.2274 54.3994 95.3053 54.5278 95.3951C54.7682 95.5623 54.9826 95.764 55.1639 95.9937C55.3499 96.2235 55.4895 96.4872 55.5749 96.7701C55.6635 97.0655 55.6679 97.3796 55.5878 97.6774C55.548 97.8208 55.4905 97.9587 55.4165 98.0878C55.345 98.2087 55.2631 98.3231 55.1717 98.4299C55.0836 98.5301 54.9892 98.6246 54.8891 98.7129C54.7958 98.7984 54.6973 98.8839 54.5955 98.9583C54.1806 99.2852 53.6999 99.5186 53.1862 99.6424C52.6643 99.7601 52.1234 99.7665 51.5988 99.6612C51.0923 99.5627 50.6 99.4018 50.1331 99.1823C49.6796 98.9725 49.242 98.7299 48.824 98.4564C48.4145 98.1896 48.0192 97.9016 47.6399 97.5936C47.4515 97.4414 47.2658 97.2866 47.0851 97.1275L46.8146 96.8898L46.5577 96.6504C46.2101 96.3315 45.8728 96.0074 45.5363 95.6833L45.0371 95.1993C44.871 95.0402 44.7032 94.8846 44.5371 94.729C44.2168 94.4255 43.8733 94.1473 43.5097 93.897C43.1536 93.6678 42.7811 93.4959 42.4147 93.4831C42.0482 93.4703 41.6844 93.6199 41.3573 93.8893C41.1964 94.014 41.0555 94.1625 40.9395 94.3297C40.8888 94.4066 40.8474 94.4893 40.8162 94.5759C40.8021 94.6166 40.7904 94.658 40.7811 94.6999C40.7739 94.7406 40.7697 94.7818 40.7683 94.8231C40.7645 94.9875 40.8124 95.149 40.9052 95.2848C40.9544 95.3571 41.0119 95.4234 41.0765 95.4823C41.109 95.5128 41.1433 95.5414 41.1792 95.5678C41.1981 95.5807 41.216 95.5918 41.234 95.6021L41.2597 95.6157C41.2657 95.6157 41.2794 95.626 41.2743 95.6157C41.3288 95.6606 41.374 95.7159 41.4073 95.7782C41.4405 95.8406 41.4611 95.9089 41.4679 95.9792C41.4747 96.0495 41.4675 96.1205 41.4469 96.188C41.4262 96.2556 41.3924 96.3184 41.3475 96.3729C41.3025 96.4274 41.2472 96.4726 41.1848 96.5057C41.1223 96.5389 41.0539 96.5595 40.9835 96.5663C40.9131 96.5731 40.8421 96.566 40.7745 96.5453C40.7068 96.5247 40.6439 96.4909 40.5893 96.446L40.5842 96.4443Z" fill="#231F20"/>
<path d="M32.3122 14.3327L29.7103 83.8523C29.6993 84.141 29.7476 84.4289 29.8521 84.6984C29.9567 84.9678 30.1152 85.2131 30.318 85.4191C30.5209 85.6251 30.7637 85.7876 31.0317 85.8965C31.2997 86.0054 31.5871 86.0585 31.8764 86.0524L38.2232 85.9207C38.5069 85.9148 38.7866 85.8521 39.0457 85.7364C39.3048 85.6207 39.538 85.4543 39.7316 85.247C39.9253 85.0398 40.0753 84.7959 40.173 84.5297C40.2707 84.2636 40.3139 83.9806 40.3003 83.6975L36.8584 14.4918C36.8418 14.1455 36.7404 13.8086 36.5633 13.5104C36.3861 13.2123 36.1385 12.9621 35.8422 12.7816L35.5391 12.5969C35.1422 12.3555 34.677 12.2508 34.2148 12.2987C33.7526 12.3465 33.3188 12.5444 32.98 12.862C32.5718 13.245 32.3317 13.7737 32.3122 14.3327Z" fill="black"/>
<path d="M35.1472 5.58163L40.0026 5.54828" stroke="#010101" stroke-width="3.43772" stroke-miterlimit="10"/>
<path d="M38.952 5.08224L38.958 5.92366C38.9583 6.04871 38.9861 6.17216 39.0394 6.28531C39.0928 6.39846 39.1703 6.49856 39.2665 6.57854C39.3628 6.65853 39.4754 6.71645 39.5965 6.74824C39.7176 6.78003 39.8442 6.7849 39.9674 6.76251C40.5479 6.66247 41.166 6.35463 41.1575 5.50124C41.1515 4.66667 40.5496 4.34771 39.9742 4.23313C39.8493 4.20844 39.7204 4.21191 39.5969 4.24329C39.4735 4.27467 39.3586 4.33317 39.2606 4.41453C39.1627 4.49588 39.0841 4.59804 39.0307 4.71355C38.9773 4.82906 38.9504 4.95502 38.952 5.08224Z" fill="#010101"/>
<path d="M35.1721 9.1739L40.0275 9.14055" stroke="#010101" stroke-width="3.43772" stroke-miterlimit="10"/>
<path d="M38.9769 8.67453L38.9828 9.51594C38.9832 9.64099 39.011 9.76445 39.0643 9.8776C39.1176 9.99075 39.1952 10.0908 39.2914 10.1708C39.3877 10.2508 39.5003 10.3087 39.6214 10.3405C39.7425 10.3723 39.8691 10.3772 39.9923 10.3548C40.5728 10.2547 41.1909 9.94777 41.1824 9.09353C41.1764 8.25895 40.5736 7.94 39.9991 7.82627C39.8742 7.80159 39.7454 7.80505 39.622 7.83638C39.4986 7.86771 39.3838 7.92614 39.2858 8.00739C39.1879 8.08865 39.1094 8.1907 39.0559 8.30611C39.0025 8.42152 38.9755 8.54738 38.9769 8.67453Z" fill="#010101"/>
<path d="M34.4443 4.10999L29.5898 4.14333" stroke="#010101" stroke-width="3.43772" stroke-miterlimit="10"/>
<path d="M30.6336 3.66273L30.6396 4.50414C30.6405 4.62917 30.614 4.75288 30.5621 4.86666C30.5102 4.98044 30.4341 5.08155 30.3391 5.16294C30.244 5.24434 30.1324 5.30407 30.0119 5.33797C29.8914 5.37187 29.7649 5.37913 29.6413 5.35924C29.06 5.26689 28.4427 4.96761 28.4341 4.11336C28.4281 3.27964 29.0266 2.95214 29.5994 2.83072C29.7238 2.80429 29.8525 2.80588 29.9762 2.83537C30.0999 2.86485 30.2155 2.92149 30.3145 3.00117C30.4136 3.08085 30.4936 3.18156 30.5488 3.296C30.604 3.41043 30.633 3.53571 30.6336 3.66273Z" fill="#010101"/>
<path d="M34.516 7.60654L29.6606 7.63989" stroke="#010101" stroke-width="3.43772" stroke-miterlimit="10"/>
<path d="M30.7052 7.16015L30.7112 8.00157C30.7122 8.12664 30.6858 8.25042 30.6339 8.36427C30.5821 8.47812 30.506 8.57929 30.4109 8.66072C30.3158 8.74215 30.2041 8.80187 30.0836 8.83571C29.963 8.86956 29.8365 8.87671 29.7129 8.85666C29.1315 8.76431 28.5142 8.46588 28.5057 7.61164C28.4997 6.77706 29.0981 6.45042 29.6709 6.32899C29.7952 6.30259 29.9239 6.30416 30.0475 6.33359C30.1712 6.36303 30.2867 6.41959 30.3857 6.49918C30.4848 6.57876 30.5648 6.67937 30.6201 6.79369C30.6753 6.90802 30.7044 7.0332 30.7052 7.16015Z" fill="#010101"/>
<path d="M33.1137 5.06514L32.0684 122.181" stroke="#BCBEC0" stroke-width="1.23044" stroke-miterlimit="10" stroke-linecap="round"/>
<path d="M33.8245 5.06085L34.0942 122.167" stroke="#BCBEC0" stroke-width="1.23044" stroke-miterlimit="10" stroke-linecap="round"/>
<path d="M35.6875 5.048L38.435 122.137" stroke="#BCBEC0" stroke-width="1.23044" stroke-miterlimit="10" stroke-linecap="round"/>
<path d="M34.8005 5.054L36.4093 122.151" stroke="#BCBEC0" stroke-width="1.23044" stroke-miterlimit="10" stroke-linecap="round"/>
<path d="M32.6043 119.89L38.4546 119.769C39.744 119.742 40.7046 120.836 40.375 121.964C39.1455 126.17 37.1712 135.463 40.9357 142.808C41.5308 143.968 40.6327 145.152 39.2166 145.182L36.3056 145.388L32.791 145.398C31.4331 145.426 30.4391 144.292 30.8937 143.134C32.3201 139.5 34.7105 131.966 30.8175 122.257C30.3603 121.125 31.2704 119.919 32.6043 119.89Z" fill="black"/>
<path d="M32.3947 1.3711C31.7954 1.37538 31.3399 1.81661 31.4076 2.32026C31.5101 3.13229 31.5616 3.94994 31.5617 4.76841C31.5668 5.80028 31.4629 6.82981 31.2517 7.83992C31.143 8.36495 31.6147 8.8421 32.2415 8.83782H32.5651C33.125 8.83782 33.5728 8.44106 33.56 7.96562L33.3999 2.20226C33.3922 1.73537 32.941 1.36682 32.3947 1.3711Z" fill="#9B3521"/>
<path d="M36.5034 1.34972C37.1027 1.34544 37.5642 1.77727 37.5034 2.2852C37.4124 3.09853 37.3721 3.91673 37.3827 4.73505C37.3921 5.76695 37.5101 6.795 37.7346 7.80229C37.851 8.32561 37.3853 8.80874 36.7585 8.81302H36.4349C35.875 8.81302 35.422 8.42993 35.428 7.95792L35.5085 2.19028C35.5154 1.72853 35.9606 1.35314 36.5034 1.34972Z" fill="#9B3521"/>
<path d="M36.1566 1.09063C36.1027 0.54935 35.4802 0.132917 34.7345 0.138047L34.505 0.138047H34.2764C33.5299 0.143178 32.9143 0.565597 32.8672 1.10944L31.6882 14.7055C31.636 15.3041 32.2876 15.8035 33.1121 15.7983L36.1146 15.7864C36.9366 15.7804 37.583 15.2733 37.5231 14.6747L36.1566 1.09063Z" fill="#C54F27"/>
<path d="M8.51318 132.005C8.51318 132.005 26.7608 123.071 29.2428 143.241C29.2428 143.241 35.0366 144.302 36.8388 142.771C38.6411 141.241 38.8705 144.67 36.7412 145.186C34.3011 145.778 12.5663 145.676 8.51318 132.005Z" fill="black"/>
<path d="M1.49976 101.804C1.49976 101.804 27.1712 108.157 35.8323 109.654C45.4505 111.317 75.1503 115.028 75.1503 115.028" stroke="white" stroke-width="3.08706" stroke-miterlimit="10"/>
<path d="M3.04312 102.693C3.04312 102.693 2.4635 100.203 3.4207 100.244C4.3779 100.284 16.4534 103.705 17.438 103.901C18.4226 104.097 38.3585 108.491 61.6618 110.45L74.8923 111.229C74.8923 111.229 75.162 112.763 75.5241 112.582C75.8863 112.401 78.5276 112.593 77.5165 113.608C76.5053 114.623 74.1936 114.378 74.1936 114.378L73.912 115.508L83.484 116.98L83.6552 112.574C83.6552 112.574 89.2803 113.498 89.9866 113.073C90.693 112.648 91.5037 111.294 89.3316 110.96C87.1595 110.625 70.5035 109.117 70.5035 109.117L59.5694 108.076C59.5694 108.076 41.868 106.529 40.2353 106.385C38.6025 106.24 18.4594 103.249 16.8472 102.579C15.235 101.909 2.95066 99.3749 2.56452 98.9952C2.17839 98.6156 1.36588 101.068 0.478031 101.297C-0.40982 101.526 1.56451 102.572 3.04312 102.693Z" fill="#603913"/>
<path d="M83.6571 112.577L83.4858 116.982L73.9138 115.511L74.1955 114.38C74.1955 114.38 76.5072 114.629 77.5183 113.61C78.5294 112.592 75.8916 112.401 75.526 112.584C75.1604 112.768 74.8941 111.232 74.8941 111.232L83.6571 112.577Z" fill="black"/>
<path d="M73.4112 111.142L73.6775 109.409L68.2348 108.903L67.9395 110.819L73.4112 111.142Z" fill="black"/>
<path d="M67.9396 110.819L60.1689 110.406L60.4969 108.166L68.2349 108.903L67.9396 110.819Z" fill="#DBDDDC"/>
</g>
<defs>
<clipPath id="clip0">
<rect width="90.4829" height="145.274" fill="white" transform="translate(0.258301 0.138077)"/>
</clipPath>
</defs>
</svg>
